<svg width="212" height="65" viewBox="0 0 212 65" fill="none" xmlns="http://www.w3.org/2000/svg">
<g filter="url(#filter0_d_1_5)">
<rect x="12" y="8" width="52" height="48" rx="10" fill="black"/>
</g>
<path d="M33.84 49.04C33.76 49.04 33.6933 49.0133 33.64 48.96C33.5867 48.9333 33.5333 48.9067 33.48 48.88C33.3733 48.72 33.2933 48.56 33.24 48.4C33.2133 48.24 33.1867 48.08 33.16 47.92C33.1333 47.7867 33.12 47.64 33.12 47.48C33.12 47.4 33.12 47.3067 33.12 47.2C33.12 47.12 33.1067 47.0267 33.08 46.92C33.0533 46.7867 33.0267 46.6533 33 46.52C32.9733 46.4133 32.9467 46.3067 32.92 46.2C32.84 45.8533 32.6933 45.5733 32.48 45.36C32.3467 45.28 32.24 45.1733 32.16 45.04C31.9733 44.8533 31.8 44.6533 31.64 44.44C31.48 44.2533 31.3333 44.0533 31.2 43.84L31 43.48C30.8133 43.2667 30.6533 43.04 30.52 42.8C30.4133 42.56 30.3067 42.32 30.2 42.08L29.96 41.44L29.84 41.2C29.8133 40.9867 29.7733 40.7867 29.72 40.6C29.6667 40.3867 29.6133 40.1867 29.56 40C29.5333 39.8667 29.5067 39.76 29.48 39.68C29.4533 39.5733 29.4267 39.4667 29.4 39.36C29.3733 39.1467 29.3467 38.9333 29.32 38.72C29.2933 38.5067 29.2533 38.3067 29.2 38.12C29.1733 38.0667 29.16 37.9733 29.16 37.84L29.04 36.72C29.0133 36.4267 28.9867 36.1467 28.96 35.88C28.9333 35.6133 28.8933 35.3467 28.84 35.08V34.92C28.84 34.7067 28.8267 34.4933 28.8 34.28C28.7733 34.0667 28.7467 33.8667 28.72 33.68C28.6933 33.5733 28.68 33.48 28.68 33.4C28.68 33.2933 28.68 33.1867 28.68 33.08C28.7333 32.9467 28.7333 32.8267 28.68 32.72C28.6533 32.5867 28.64 32.4533 28.64 32.32C28.64 32.16 28.64 32.0267 28.64 31.92C28.64 31.6533 28.6267 31.4 28.6 31.16C28.6 30.8933 28.6 30.6267 28.6 30.36C28.6 30.0667 28.6 29.7733 28.6 29.48C28.6267 29.1867 28.6533 28.9067 28.68 28.64V28.36C28.7067 27.7733 28.7733 27.2 28.88 26.64C28.9867 26.08 29.12 25.5333 29.28 25L29.76 23.4C29.8133 23.24 29.8667 23.0933 29.92 22.96C29.9733 22.8 30.0267 22.6533 30.08 22.52C30.16 22.3067 30.24 22.0933 30.32 21.88C30.4 21.64 30.4667 21.4133 30.52 21.2C30.5733 20.9333 30.64 20.6667 30.72 20.4C30.8 20.1067 30.8667 19.8267 30.92 19.56C31.0267 19.16 31.1733 18.7733 31.36 18.4C31.5467 18.0267 31.7867 17.7067 32.08 17.44C32.1333 17.3867 32.1867 17.3333 32.24 17.28C32.2933 17.2 32.36 17.1467 32.44 17.12C32.5733 17.04 32.6933 16.96 32.8 16.88C32.9333 16.8 33.0667 16.72 33.2 16.64C33.7333 16.3467 34.2667 16.1067 34.8 15.92L36.32 15.32C36.48 15.2667 36.6667 15.2133 36.88 15.16C37.0133 15.1067 37.1467 15.08 37.28 15.08C37.4133 15.0533 37.5333 15.0267 37.64 15C38.44 14.84 39.2267 14.84 40 15C40.2933 15.08 40.5867 15.2 40.88 15.36C41.3867 15.6 41.8933 15.9067 42.4 16.28C42.6933 16.52 42.9733 16.7867 43.24 17.08C43.5067 17.3467 43.7333 17.6667 43.92 18.04C44.1067 18.3867 44.28 18.7333 44.44 19.08C44.52 19.3733 44.6533 19.6267 44.84 19.84L45.32 20.56C45.3733 20.6133 45.4133 20.68 45.44 20.76C45.4933 20.84 45.5333 20.9067 45.56 20.96C45.7467 21.4133 45.8 21.9067 45.72 22.44C45.64 22.8667 45.5067 23.2133 45.32 23.48C45.2133 23.64 45.1333 23.7467 45.08 23.8C44.7067 24.2 44.52 24.7067 44.52 25.32V25.44C44.4933 25.7067 44.48 25.9867 44.48 26.28C44.48 26.5467 44.4667 26.8267 44.44 27.12V28.8C44.4133 28.9333 44.4 29.08 44.4 29.24C44.4 29.3733 44.3867 29.5067 44.36 29.64C44.3333 29.72 44.32 29.8133 44.32 29.92C44.32 30 44.32 30.0933 44.32 30.2C44.32 30.4667 44.2533 30.7333 44.12 31C43.9333 31.2667 43.68 31.36 43.36 31.28C43.12 31.2 42.96 31.04 42.88 30.8C42.8533 30.72 42.8133 30.64 42.76 30.56C42.7333 30.48 42.7067 30.3867 42.68 30.28C42.6533 30.1467 42.6267 30 42.6 29.84C42.6 29.68 42.6 29.5333 42.6 29.4C42.6 29.2133 42.5867 29.04 42.56 28.88C42.56 28.6933 42.56 28.5067 42.56 28.32V28.2C42.5333 28.0133 42.5067 27.84 42.48 27.68C42.48 27.4933 42.48 27.3067 42.48 27.12C42.4533 26.8267 42.4267 26.5333 42.4 26.24C42.3733 25.9467 42.3333 25.6667 42.28 25.4L41.92 24.44C41.8133 24.2267 41.7067 24.0133 41.6 23.8C41.52 23.5867 41.4267 23.3733 41.32 23.16C41.2667 22.9733 41.1867 22.8 41.08 22.64C40.9733 22.48 40.8667 22.3067 40.76 22.12C40.5467 21.72 40.3067 21.3733 40.04 21.08C39.9867 21.0267 39.9333 20.9733 39.88 20.92C39.8267 20.8667 39.7733 20.8133 39.72 20.76C39.6133 20.7067 39.5067 20.6533 39.4 20.6C39.32 20.52 39.24 20.4267 39.16 20.32C39.1333 20.2933 39.0933 20.28 39.04 20.28C39.0133 20.2533 38.9733 20.2267 38.92 20.2C38.36 20.04 37.8667 20.0267 37.44 20.16L36.84 20.28C36.7333 20.28 36.6267 20.2933 36.52 20.32C36.44 20.32 36.3467 20.3333 36.24 20.36L35.96 20.48C35.88 20.5067 35.7867 20.6 35.68 20.76C35.68 20.8667 35.6533 20.9733 35.6 21.08C35.5733 21.16 35.5467 21.24 35.52 21.32C35.52 21.3733 35.52 21.4267 35.52 21.48C35.44 21.8533 35.3333 22.2133 35.2 22.56C35.0667 22.9067 34.92 23.2667 34.76 23.64C34.7067 23.7733 34.6267 23.92 34.52 24.08C34.4667 24.16 34.4133 24.24 34.36 24.32C34.3067 24.3733 34.2667 24.4667 34.24 24.6L34 24.96C33.8667 25.0933 33.7733 25.28 33.72 25.52C33.64 25.7333 33.5733 25.96 33.52 26.2C33.4933 26.4133 33.4533 26.6267 33.4 26.84C33.32 27.16 33.2667 27.48 33.24 27.8C33.2133 28.12 33.1867 28.44 33.16 28.76V31.4C33.16 31.5067 33.1467 31.6 33.12 31.68C33.12 31.76 33.12 31.8533 33.12 31.96C33.12 32.1733 33.1067 32.4 33.08 32.64C33.08 32.88 33.0933 33.1067 33.12 33.32C33.1467 33.4 33.16 33.52 33.16 33.68C33.16 34.0267 33.2 34.3867 33.28 34.76C33.28 34.8667 33.2933 34.9333 33.32 34.96C33.4533 35.0933 33.48 35.2267 33.4 35.36C33.4 35.44 33.4133 35.4933 33.44 35.52C33.5467 35.8667 33.64 36.2133 33.72 36.56C33.8 36.88 33.8933 37.2133 34 37.56C34.1067 37.8533 34.2133 38.1467 34.32 38.44C34.4533 38.7333 34.6133 39.0267 34.8 39.32C35.0133 39.64 35.32 39.8933 35.72 40.08C35.88 40.1333 36.04 40.1867 36.2 40.24C36.36 40.2933 36.52 40.3333 36.68 40.36C36.8667 40.3867 37.04 40.4133 37.2 40.44C37.36 40.44 37.52 40.44 37.68 40.44C37.8933 40.44 38.1067 40.4267 38.32 40.4C38.5333 40.3733 38.7333 40.3467 38.92 40.32C39.2133 40.2667 39.48 40.2133 39.72 40.16C39.9867 40.1067 40.2533 40.0533 40.52 40C40.9733 39.92 41.3867 39.7867 41.76 39.6C41.7867 39.6 41.8267 39.5733 41.88 39.52C42.0933 39.3867 42.2933 39.2533 42.48 39.12C42.6933 38.96 42.8933 38.7867 43.08 38.6C43.24 38.44 43.4 38.28 43.56 38.12C43.7467 37.96 43.9067 37.7867 44.04 37.6L44.4 37.08C44.56 36.7867 44.7333 36.5733 44.92 36.44C45.0267 36.3333 45.1067 36.24 45.16 36.16C45.2133 36.08 45.28 36.04 45.36 36.04C45.52 36.04 45.68 36.0267 45.84 36C46 35.9733 46.1733 35.9733 46.36 36C46.52 36.0267 46.6667 36.08 46.8 36.16C46.96 36.2133 47.1067 36.2667 47.24 36.32C47.2933 36.3467 47.36 36.4 47.44 36.48C47.5733 36.64 47.68 36.8 47.76 36.96C47.8667 37.0933 47.9333 37.2533 47.96 37.44C48.0133 37.6533 48.04 37.8 48.04 37.88C48.0667 38.04 48.04 38.2267 47.96 38.44C47.8533 38.68 47.6933 38.9333 47.48 39.2C47.3467 39.3067 47.2133 39.44 47.08 39.6C46.9467 39.76 46.8133 39.9067 46.68 40.04C46.4933 40.2267 46.32 40.4267 46.16 40.64C46 40.8267 45.8133 41.0133 45.6 41.2C45.52 41.2533 45.44 41.32 45.36 41.4C45.3067 41.4533 45.2533 41.5067 45.2 41.56C44.96 41.8 44.6933 42.0133 44.4 42.2C44.1333 42.36 43.8533 42.5067 43.56 42.64L42.48 43.12C42.2133 43.2267 41.9333 43.32 41.64 43.4C41.3733 43.48 41.0933 43.56 40.8 43.64C40.5333 43.72 40.2533 43.8 39.96 43.88C39.6933 43.9333 39.4133 43.9867 39.12 44.04L37.56 44.28C37.3733 44.3067 37.1733 44.3333 36.96 44.36C36.7733 44.4133 36.5733 44.4267 36.36 44.4C36.0933 44.3733 35.8133 44.4533 35.52 44.64C35.2533 44.7733 35.1067 44.96 35.08 45.2C35.0267 45.36 35 45.48 35 45.56L34.88 46.6C34.88 46.7867 34.8667 46.9867 34.84 47.2C34.84 47.4133 34.8267 47.6267 34.8 47.84C34.7733 47.9467 34.7467 48.0533 34.72 48.16C34.6933 48.2933 34.6533 48.4267 34.6 48.56C34.4667 48.88 34.2133 49.04 33.84 49.04Z" fill="white"/>
<path d="M73.762 40.772C73.718 40.772 73.6813 40.7573 73.652 40.728C73.6227 40.7133 73.5933 40.6987 73.564 40.684C73.5053 40.596 73.4613 40.508 73.432 40.42C73.4173 40.332 73.4027 40.244 73.388 40.156C73.3733 40.0827 73.366 40.002 73.366 39.914C73.366 39.87 73.366 39.8187 73.366 39.76C73.366 39.716 73.3587 39.6647 73.344 39.606C73.3293 39.5327 73.3147 39.4593 73.3 39.386C73.2853 39.3273 73.2707 39.2687 73.256 39.21C73.212 39.0193 73.1313 38.8653 73.014 38.748C72.9407 38.704 72.882 38.6453 72.838 38.572C72.7353 38.4693 72.64 38.3593 72.552 38.242C72.464 38.1393 72.3833 38.0293 72.31 37.912L72.2 37.714C72.0973 37.5967 72.0093 37.472 71.936 37.34C71.8773 37.208 71.8187 37.076 71.76 36.944L71.628 36.592L71.562 36.46C71.5473 36.3427 71.5253 36.2327 71.496 36.13C71.4667 36.0127 71.4373 35.9027 71.408 35.8C71.3933 35.7267 71.3787 35.668 71.364 35.624C71.3493 35.5653 71.3347 35.5067 71.32 35.448C71.3053 35.3307 71.2907 35.2133 71.276 35.096C71.2613 34.9787 71.2393 34.8687 71.21 34.766C71.1953 34.7367 71.188 34.6853 71.188 34.612L71.122 33.996C71.1073 33.8347 71.0927 33.6807 71.078 33.534C71.0633 33.3873 71.0413 33.2407 71.012 33.094V33.006C71.012 32.8887 71.0047 32.7713 70.99 32.654C70.9753 32.5367 70.9607 32.4267 70.946 32.324C70.9313 32.2653 70.924 32.214 70.924 32.17C70.924 32.1113 70.924 32.0527 70.924 31.994C70.9533 31.9207 70.9533 31.8547 70.924 31.796C70.9093 31.7227 70.902 31.6493 70.902 31.576C70.902 31.488 70.902 31.4147 70.902 31.356C70.902 31.2093 70.8947 31.07 70.88 30.938C70.88 30.7913 70.88 30.6447 70.88 30.498C70.88 30.3367 70.88 30.1753 70.88 30.014C70.8947 29.8527 70.9093 29.6987 70.924 29.552V29.398C70.9387 29.0753 70.9753 28.76 71.034 28.452C71.0927 28.144 71.166 27.8433 71.254 27.55L71.518 26.67C71.5473 26.582 71.5767 26.5013 71.606 26.428C71.6353 26.34 71.6647 26.2593 71.694 26.186C71.738 26.0687 71.782 25.9513 71.826 25.834C71.87 25.702 71.9067 25.5773 71.936 25.46C71.9653 25.3133 72.002 25.1667 72.046 25.02C72.09 24.8587 72.1267 24.7047 72.156 24.558C72.2147 24.338 72.2953 24.1253 72.398 23.92C72.5007 23.7147 72.6327 23.5387 72.794 23.392C72.8233 23.3627 72.8527 23.3333 72.882 23.304C72.9113 23.26 72.948 23.2307 72.992 23.216C73.0653 23.172 73.1313 23.128 73.19 23.084C73.2633 23.04 73.3367 22.996 73.41 22.952C73.7033 22.7907 73.9967 22.6587 74.29 22.556L75.126 22.226C75.214 22.1967 75.3167 22.1673 75.434 22.138C75.5073 22.1087 75.5807 22.094 75.654 22.094C75.7273 22.0793 75.7933 22.0647 75.852 22.05C76.292 21.962 76.7247 21.962 77.15 22.05C77.3113 22.094 77.4727 22.16 77.634 22.248C77.9127 22.38 78.1913 22.5487 78.47 22.754C78.6313 22.886 78.7853 23.0327 78.932 23.194C79.0787 23.3407 79.2033 23.5167 79.306 23.722C79.4087 23.9127 79.504 24.1033 79.592 24.294C79.636 24.4553 79.7093 24.5947 79.812 24.712L80.076 25.108C80.1053 25.1373 80.1273 25.174 80.142 25.218C80.1713 25.262 80.1933 25.2987 80.208 25.328C80.3107 25.5773 80.34 25.8487 80.296 26.142C80.252 26.3767 80.1787 26.5673 80.076 26.714C80.0173 26.802 79.9733 26.8607 79.944 26.89C79.7387 27.11 79.636 27.3887 79.636 27.726V27.792C79.6213 27.9387 79.614 28.0927 79.614 28.254C79.614 28.4007 79.6067 28.5547 79.592 28.716V29.64C79.5773 29.7133 79.57 29.794 79.57 29.882C79.57 29.9553 79.5627 30.0287 79.548 30.102C79.5333 30.146 79.526 30.1973 79.526 30.256C79.526 30.3 79.526 30.3513 79.526 30.41C79.526 30.5567 79.4893 30.7033 79.416 30.85C79.3133 30.9967 79.174 31.048 78.998 31.004C78.866 30.96 78.778 30.872 78.734 30.74C78.7193 30.696 78.6973 30.652 78.668 30.608C78.6533 30.564 78.6387 30.5127 78.624 30.454C78.6093 30.3807 78.5947 30.3 78.58 30.212C78.58 30.124 78.58 30.0433 78.58 29.97C78.58 29.8673 78.5727 29.772 78.558 29.684C78.558 29.5813 78.558 29.4787 78.558 29.376V29.31C78.5433 29.2073 78.5287 29.112 78.514 29.024C78.514 28.9213 78.514 28.8187 78.514 28.716C78.4993 28.5547 78.4847 28.3933 78.47 28.232C78.4553 28.0707 78.4333 27.9167 78.404 27.77L78.206 27.242C78.1473 27.1247 78.0887 27.0073 78.03 26.89C77.986 26.7727 77.9347 26.6553 77.876 26.538C77.8467 26.4353 77.8027 26.34 77.744 26.252C77.6853 26.164 77.6267 26.0687 77.568 25.966C77.4507 25.746 77.3187 25.5553 77.172 25.394C77.1427 25.3647 77.1133 25.3353 77.084 25.306C77.0547 25.2767 77.0253 25.2473 76.996 25.218C76.9373 25.1887 76.8787 25.1593 76.82 25.13C76.776 25.086 76.732 25.0347 76.688 24.976C76.6733 24.9613 76.6513 24.954 76.622 24.954C76.6073 24.9393 76.5853 24.9247 76.556 24.91C76.248 24.822 75.9767 24.8147 75.742 24.888L75.412 24.954C75.3533 24.954 75.2947 24.9613 75.236 24.976C75.192 24.976 75.1407 24.9833 75.082 24.998L74.928 25.064C74.884 25.0787 74.8327 25.13 74.774 25.218C74.774 25.2767 74.7593 25.3353 74.73 25.394C74.7153 25.438 74.7007 25.482 74.686 25.526C74.686 25.5553 74.686 25.5847 74.686 25.614C74.642 25.8193 74.5833 26.0173 74.51 26.208C74.4367 26.3987 74.356 26.5967 74.268 26.802C74.2387 26.8753 74.1947 26.956 74.136 27.044C74.1067 27.088 74.0773 27.132 74.048 27.176C74.0187 27.2053 73.9967 27.2567 73.982 27.33L73.85 27.528C73.7767 27.6013 73.7253 27.704 73.696 27.836C73.652 27.9533 73.6153 28.078 73.586 28.21C73.5713 28.3273 73.5493 28.4447 73.52 28.562C73.476 28.738 73.4467 28.914 73.432 29.09C73.4173 29.266 73.4027 29.442 73.388 29.618V31.07C73.388 31.1287 73.3807 31.18 73.366 31.224C73.366 31.268 73.366 31.3193 73.366 31.378C73.366 31.4953 73.3587 31.62 73.344 31.752C73.344 31.884 73.3513 32.0087 73.366 32.126C73.3807 32.17 73.388 32.236 73.388 32.324C73.388 32.5147 73.41 32.7127 73.454 32.918C73.454 32.9767 73.4613 33.0133 73.476 33.028C73.5493 33.1013 73.564 33.1747 73.52 33.248C73.52 33.292 73.5273 33.3213 73.542 33.336C73.6007 33.5267 73.652 33.7173 73.696 33.908C73.74 34.084 73.7913 34.2673 73.85 34.458C73.9087 34.6193 73.9673 34.7807 74.026 34.942C74.0993 35.1033 74.1873 35.2647 74.29 35.426C74.4073 35.602 74.576 35.7413 74.796 35.844C74.884 35.8733 74.972 35.9027 75.06 35.932C75.148 35.9613 75.236 35.9833 75.324 35.998C75.4267 36.0127 75.522 36.0273 75.61 36.042C75.698 36.042 75.786 36.042 75.874 36.042C75.9913 36.042 76.1087 36.0347 76.226 36.02C76.3433 36.0053 76.4533 35.9907 76.556 35.976C76.7173 35.9467 76.864 35.9173 76.996 35.888C77.1427 35.8587 77.2893 35.8293 77.436 35.8C77.6853 35.756 77.9127 35.6827 78.118 35.58C78.1327 35.58 78.1547 35.5653 78.184 35.536C78.3013 35.4627 78.4113 35.3893 78.514 35.316C78.6313 35.228 78.7413 35.1327 78.844 35.03C78.932 34.942 79.02 34.854 79.108 34.766C79.2107 34.678 79.2987 34.5827 79.372 34.48L79.57 34.194C79.658 34.0327 79.7533 33.9153 79.856 33.842C79.9147 33.7833 79.9587 33.732 79.988 33.688C80.0173 33.644 80.054 33.622 80.098 33.622C80.186 33.622 80.274 33.6147 80.362 33.6C80.45 33.5853 80.5453 33.5853 80.648 33.6C80.736 33.6147 80.8167 33.644 80.89 33.688C80.978 33.7173 81.0587 33.7467 81.132 33.776C81.1613 33.7907 81.198 33.82 81.242 33.864C81.3153 33.952 81.374 34.04 81.418 34.128C81.4767 34.2013 81.5133 34.2893 81.528 34.392C81.5573 34.5093 81.572 34.59 81.572 34.634C81.5867 34.722 81.572 34.8247 81.528 34.942C81.4693 35.074 81.3813 35.2133 81.264 35.36C81.1907 35.4187 81.1173 35.492 81.044 35.58C80.9707 35.668 80.8973 35.7487 80.824 35.822C80.7213 35.9247 80.626 36.0347 80.538 36.152C80.45 36.2547 80.3473 36.3573 80.23 36.46C80.186 36.4893 80.142 36.526 80.098 36.57C80.0687 36.5993 80.0393 36.6287 80.01 36.658C79.878 36.79 79.7313 36.9073 79.57 37.01C79.4233 37.098 79.2693 37.1787 79.108 37.252L78.514 37.516C78.3673 37.5747 78.2133 37.626 78.052 37.67C77.9053 37.714 77.7513 37.758 77.59 37.802C77.4433 37.846 77.2893 37.89 77.128 37.934C76.9813 37.9633 76.8273 37.9927 76.666 38.022L75.808 38.154C75.7053 38.1687 75.5953 38.1833 75.478 38.198C75.3753 38.2273 75.2653 38.2347 75.148 38.22C75.0013 38.2053 74.8473 38.2493 74.686 38.352C74.5393 38.4253 74.4587 38.528 74.444 38.66C74.4147 38.748 74.4 38.814 74.4 38.858L74.334 39.43C74.334 39.5327 74.3267 39.6427 74.312 39.76C74.312 39.8773 74.3047 39.9947 74.29 40.112C74.2753 40.1707 74.2607 40.2293 74.246 40.288C74.2313 40.3613 74.2093 40.4347 74.18 40.508C74.1067 40.684 73.9673 40.772 73.762 40.772ZM84.5191 39.98C84.5045 39.98 84.4531 39.9653 84.3651 39.936C84.3211 39.9213 84.2698 39.87 84.2111 39.782C84.1965 39.738 84.1818 39.694 84.1671 39.65C84.1525 39.606 84.1451 39.562 84.1451 39.518C84.1011 39.298 84.0791 39.078 84.0791 38.858V37.34C84.0791 37.208 84.0645 37.076 84.0351 36.944C84.0058 36.812 83.9765 36.68 83.9471 36.548C83.9471 36.5187 83.9325 36.4747 83.9031 36.416C83.8885 36.372 83.8665 36.328 83.8371 36.284C83.8078 36.2253 83.7785 36.174 83.7491 36.13C83.6905 36.0273 83.6465 35.9173 83.6171 35.8C83.5878 35.6827 83.5658 35.5727 83.5511 35.47C83.5365 35.3087 83.5365 35.1547 83.5511 35.008C83.5805 34.92 83.6025 34.8393 83.6171 34.766C83.6318 34.678 83.6538 34.5973 83.6831 34.524C83.7271 34.4067 83.7638 34.2893 83.7931 34.172C83.8225 34.04 83.8591 33.908 83.9031 33.776L84.2331 32.698C84.3358 32.39 84.4678 32.0747 84.6291 31.752C84.7905 31.444 84.9445 31.0993 85.0911 30.718C85.1205 30.63 85.1571 30.5347 85.2011 30.432C85.2598 30.2707 85.3185 30.1167 85.3771 29.97C85.4505 29.8087 85.5165 29.6547 85.5751 29.508L85.9051 28.584C85.9345 28.5253 85.9565 28.4667 85.9711 28.408C85.9858 28.3493 86.0005 28.2907 86.0151 28.232C86.1325 27.9387 86.2498 27.66 86.3671 27.396C86.4551 27.22 86.5138 27.0293 86.5431 26.824C86.5725 26.6187 86.5725 26.4133 86.5431 26.208C86.5285 26.12 86.5138 26.032 86.4991 25.944C86.4991 25.8413 86.4991 25.746 86.4991 25.658C86.4991 25.614 86.4845 25.5773 86.4551 25.548C86.4405 25.504 86.4405 25.46 86.4551 25.416C86.4698 25.3867 86.4845 25.3573 86.4991 25.328C86.5285 25.2987 86.5505 25.2693 86.5651 25.24C86.6091 25.0787 86.6751 24.9393 86.7631 24.822C86.8658 24.69 86.9758 24.5727 87.0931 24.47C87.1518 24.4113 87.2325 24.3673 87.3351 24.338C87.3938 24.3087 87.4451 24.2793 87.4891 24.25C87.5478 24.2207 87.5991 24.184 87.6431 24.14C87.7165 24.0813 87.7971 24.0447 87.8851 24.03C88.0025 24.0153 88.1271 23.9713 88.2591 23.898C88.3765 23.8247 88.5085 23.8027 88.6551 23.832H88.8531C88.9558 23.832 89.0658 23.8687 89.1831 23.942C89.2125 23.9567 89.2418 23.9787 89.2711 24.008C89.3151 24.0227 89.3591 24.0447 89.4031 24.074C89.5205 24.162 89.5791 24.272 89.5791 24.404C89.5791 24.5067 89.5865 24.602 89.6011 24.69C89.6305 24.778 89.6525 24.8733 89.6671 24.976C89.6965 25.064 89.6965 25.1593 89.6671 25.262C89.6525 25.2913 89.6451 25.328 89.6451 25.372C89.6451 25.4013 89.6378 25.4307 89.6231 25.46C89.6231 25.5187 89.6158 25.5773 89.6011 25.636C89.6011 25.6947 89.5938 25.7533 89.5791 25.812C89.5351 25.9147 89.5498 26.0173 89.6231 26.12C89.7405 26.3107 89.8431 26.5087 89.9311 26.714C90.0338 26.9193 90.1365 27.1247 90.2391 27.33L90.6351 28.034C90.7525 28.2247 90.8698 28.452 90.9871 28.716C91.0165 28.76 91.0385 28.804 91.0531 28.848C91.0825 28.892 91.1118 28.936 91.1411 28.98C91.1851 29.0533 91.2218 29.134 91.2511 29.222C91.2951 29.31 91.3391 29.398 91.3831 29.486C91.5005 29.706 91.5958 29.9333 91.6691 30.168C91.7571 30.388 91.8451 30.6227 91.9331 30.872C91.9331 30.8867 91.9331 30.9013 91.9331 30.916C91.9478 30.916 91.9551 30.9233 91.9551 30.938C91.9698 31.0407 92.0431 31.092 92.1751 31.092C92.2191 31.0773 92.2631 31.07 92.3071 31.07C92.3658 31.07 92.4171 31.07 92.4611 31.07C92.6225 31.07 92.7618 31.0993 92.8791 31.158C92.9525 31.1727 93.0258 31.2167 93.0991 31.29C93.2165 31.4073 93.2971 31.5027 93.3411 31.576C93.3851 31.6493 93.4145 31.7593 93.4291 31.906C93.4878 32.1847 93.4291 32.4267 93.2531 32.632L93.1211 32.742C93.0918 32.7713 93.0551 32.8007 93.0111 32.83C92.9671 32.8447 92.9305 32.8667 92.9011 32.896C92.8278 32.9547 92.7838 32.9987 92.7691 33.028C92.7691 33.0573 92.7911 33.1233 92.8351 33.226L93.1651 34.018C93.2971 34.3113 93.4291 34.6047 93.5611 34.898C93.7078 35.1913 93.8545 35.4847 94.0011 35.778C94.0598 35.8807 94.1038 35.9833 94.1331 36.086C94.1771 36.1887 94.2065 36.2987 94.2211 36.416C94.2358 36.504 94.2358 36.592 94.2211 36.68C94.2211 36.768 94.2138 36.856 94.1991 36.944C94.1991 36.9587 94.1845 37.01 94.1551 37.098C94.1111 37.1567 94.0671 37.2153 94.0231 37.274C93.9938 37.3327 93.9571 37.3913 93.9131 37.45C93.7958 37.6113 93.7005 37.7947 93.6271 38C93.5978 38.132 93.5025 38.2347 93.3411 38.308C93.2531 38.352 93.1578 38.352 93.0551 38.308C92.9231 38.264 92.8351 38.176 92.7911 38.044L92.7471 37.934C92.7031 37.7873 92.6371 37.648 92.5491 37.516C92.4905 37.4133 92.4318 37.3107 92.3731 37.208C92.3291 37.0907 92.2778 36.9807 92.2191 36.878C92.2045 36.8487 92.1971 36.8267 92.1971 36.812C92.1971 36.7827 92.1898 36.7607 92.1751 36.746C92.1605 36.658 92.1311 36.5773 92.0871 36.504C92.0578 36.416 92.0211 36.3353 91.9771 36.262C91.8891 36.042 91.7938 35.8293 91.6911 35.624C91.6031 35.404 91.5078 35.184 91.4051 34.964L91.0751 34.26C91.0605 34.216 91.0458 34.172 91.0311 34.128C91.0165 34.0693 90.9945 34.0107 90.9651 33.952L90.7011 33.358C90.7011 33.3287 90.6865 33.2847 90.6571 33.226C90.5838 33.1087 90.4885 33.0427 90.3711 33.028C90.2685 33.028 90.1731 33.0207 90.0851 33.006C89.9971 32.9913 89.9091 32.984 89.8211 32.984C89.5865 32.984 89.3518 33.006 89.1171 33.05C88.8825 33.094 88.6625 33.1747 88.4571 33.292C88.1785 33.4533 87.8925 33.556 87.5991 33.6C87.5405 33.6 87.4818 33.6073 87.4231 33.622C87.3645 33.6367 87.3058 33.6587 87.2471 33.688C87.1591 33.7467 87.1078 33.8127 87.0931 33.886C87.0638 33.974 87.0491 34.04 87.0491 34.084L86.9831 34.392C86.9685 34.4947 86.9098 34.5973 86.8071 34.7C86.7338 34.7733 86.6311 34.81 86.4991 34.81C86.3085 34.7807 86.1838 34.6853 86.1251 34.524C86.1105 34.48 86.0958 34.436 86.0811 34.392C86.0665 34.348 86.0518 34.2967 86.0371 34.238C85.9785 34.326 85.9711 34.3993 86.0151 34.458C86.0445 34.5167 86.0298 34.568 85.9711 34.612C85.9418 34.6413 85.9345 34.6633 85.9491 34.678C85.9785 34.7367 85.9711 34.788 85.9271 34.832C85.8831 34.876 85.8685 34.9273 85.8831 34.986C85.8978 35.0153 85.8978 35.052 85.8831 35.096C85.8098 35.1987 85.7585 35.3233 85.7291 35.47C85.7438 35.5287 85.7071 35.5727 85.6191 35.602C85.5898 35.602 85.5751 35.6167 85.5751 35.646C85.5458 35.69 85.5165 35.756 85.4871 35.844C85.4725 35.9173 85.4505 35.998 85.4211 36.086C85.4065 36.1593 85.3845 36.2327 85.3551 36.306L85.2231 36.856V36.944C85.2231 37.076 85.2085 37.208 85.1791 37.34C85.1645 37.4573 85.1571 37.582 85.1571 37.714L85.0911 38.44C85.0765 38.5427 85.0618 38.6453 85.0471 38.748C85.0471 38.8653 85.0471 38.9827 85.0471 39.1C85.0325 39.188 85.0178 39.2687 85.0031 39.342C85.0031 39.43 84.9885 39.518 84.9591 39.606C84.9298 39.738 84.8785 39.8333 84.8051 39.892C84.7465 39.98 84.6511 40.0093 84.5191 39.98ZM87.3791 31.07H87.4011C87.5478 31.0407 87.6871 31.0187 87.8191 31.004C87.9511 30.9893 88.0831 30.9747 88.2151 30.96C88.3031 30.9453 88.3911 30.938 88.4791 30.938C88.5671 30.9233 88.6551 30.916 88.7431 30.916H89.2051C89.2345 30.916 89.2638 30.916 89.2931 30.916C89.3225 30.9013 89.3445 30.894 89.3591 30.894C89.3885 30.894 89.4031 30.8647 89.4031 30.806C89.3591 30.7473 89.3225 30.6887 89.2931 30.63C89.2638 30.5713 89.2345 30.5127 89.2051 30.454C89.1171 30.2487 88.9998 30.0727 88.8531 29.926C88.8385 29.8967 88.8238 29.8747 88.8091 29.86C88.7945 29.8307 88.7798 29.8013 88.7651 29.772C88.7505 29.7427 88.7285 29.7133 88.6991 29.684C88.6845 29.64 88.6625 29.6033 88.6331 29.574C88.5598 29.5153 88.4865 29.53 88.4131 29.618L88.3471 29.794C88.3325 29.9113 88.3105 30.036 88.2811 30.168C88.2518 30.2853 88.2225 30.4027 88.1931 30.52C88.1931 30.5493 88.1785 30.5933 88.1491 30.652C88.1198 30.74 88.0465 30.806 87.9291 30.85C87.8265 30.894 87.7165 30.8793 87.5991 30.806L87.4671 30.718C87.4671 30.718 87.4525 30.718 87.4231 30.718C87.3938 30.7767 87.3791 30.8207 87.3791 30.85C87.3791 30.8793 87.3791 30.9087 87.3791 30.938C87.3938 30.9673 87.3865 30.9967 87.3571 31.026C87.3278 31.0553 87.3351 31.07 87.3791 31.07ZM106.211 46.294L105.925 46.03C105.896 46.0007 105.881 45.9713 105.881 45.942L105.815 45.722C105.815 45.6047 105.793 45.48 105.749 45.348C105.735 45.3187 105.727 45.282 105.727 45.238C105.727 45.194 105.72 45.1573 105.705 45.128C105.705 45.0107 105.698 44.8933 105.683 44.776C105.669 44.6733 105.647 44.5707 105.617 44.468V44.38C105.603 44.1747 105.581 43.962 105.551 43.742C105.522 43.5367 105.507 43.3313 105.507 43.126V42.818C105.507 42.774 105.507 42.73 105.507 42.686C105.522 42.642 105.522 42.5907 105.507 42.532C105.507 42.444 105.5 42.3413 105.485 42.224C105.485 42.1213 105.485 42.0187 105.485 41.916C105.485 41.8427 105.485 41.762 105.485 41.674C105.485 41.586 105.478 41.5053 105.463 41.432C105.449 41.2853 105.434 41.1387 105.419 40.992C105.405 40.8453 105.39 40.6987 105.375 40.552C105.361 40.4053 105.346 40.2587 105.331 40.112C105.331 39.9653 105.331 39.8187 105.331 39.672C105.302 39.5547 105.28 39.4447 105.265 39.342C105.251 39.2393 105.229 39.1367 105.199 39.034C105.17 38.902 105.119 38.7993 105.045 38.726C104.987 38.6527 104.928 38.5793 104.869 38.506C104.825 38.4473 104.789 38.3813 104.759 38.308C104.73 38.2493 104.701 38.2053 104.671 38.176C104.598 38.1027 104.525 38.022 104.451 37.934C104.393 37.8313 104.327 37.736 104.253 37.648C104.18 37.516 104.099 37.3987 104.011 37.296C103.967 37.2227 103.916 37.1567 103.857 37.098C103.813 37.0247 103.777 36.9587 103.747 36.9C103.718 36.8267 103.674 36.768 103.615 36.724C103.571 36.6653 103.527 36.614 103.483 36.57L102.647 35.646C102.515 35.4993 102.391 35.3527 102.273 35.206C102.244 35.1327 102.207 35.074 102.163 35.03C102.119 34.986 102.068 34.9347 102.009 34.876L101.481 34.326C101.437 34.2673 101.386 34.2233 101.327 34.194C101.283 34.15 101.232 34.1133 101.173 34.084C101.056 34.0253 100.939 33.9373 100.821 33.82C100.821 33.8053 100.807 33.7833 100.777 33.754C100.689 33.6953 100.601 33.6293 100.513 33.556C100.44 33.4827 100.367 33.4093 100.293 33.336C100.205 33.248 100.139 33.1893 100.095 33.16C99.9782 33.0427 99.8535 32.9327 99.7215 32.83C99.6042 32.7273 99.4868 32.6173 99.3695 32.5C99.3108 32.4413 99.2522 32.39 99.1935 32.346C99.1495 32.2873 99.1055 32.2287 99.0615 32.17L98.9295 32.038C98.9295 32.038 98.9222 32.038 98.9075 32.038C98.9075 32.038 98.9075 32.0453 98.9075 32.06L98.8855 32.082V32.104C98.9588 32.3973 99.0102 32.72 99.0395 33.072C99.0395 33.116 99.0468 33.1453 99.0615 33.16C99.1055 33.3067 99.1202 33.4533 99.1055 33.6C99.1055 33.732 99.0908 33.8713 99.0615 34.018C99.0322 34.1353 99.0542 34.2307 99.1275 34.304C99.1568 34.3333 99.1568 34.3627 99.1275 34.392C99.1275 34.4653 99.1275 34.502 99.1275 34.502C99.1422 34.5753 99.1495 34.6487 99.1495 34.722C99.1495 34.7953 99.1495 34.8687 99.1495 34.942C99.1495 35.0447 99.1568 35.118 99.1715 35.162C99.2155 35.382 99.2302 35.5873 99.2155 35.778C99.2008 35.8367 99.1935 35.9027 99.1935 35.976C99.1935 36.0493 99.1862 36.1227 99.1715 36.196C99.1568 36.24 99.1495 36.284 99.1495 36.328C99.1642 36.3573 99.1715 36.3867 99.1715 36.416C99.1862 36.4747 99.1935 36.5333 99.1935 36.592C99.2082 36.636 99.2082 36.6873 99.1935 36.746C99.1935 36.878 99.1642 36.9953 99.1055 37.098C99.0175 37.2447 98.9002 37.3327 98.7535 37.362C98.7095 37.362 98.6802 37.3693 98.6655 37.384C98.5922 37.4133 98.5555 37.45 98.5555 37.494C98.5555 37.5673 98.5482 37.6407 98.5335 37.714C98.5335 37.7727 98.5335 37.8387 98.5335 37.912V38.484C98.5482 38.616 98.5188 38.748 98.4455 38.88C98.4015 38.9533 98.3428 39.0047 98.2695 39.034C98.1962 39.0633 98.1228 39.0707 98.0495 39.056C97.8442 38.9827 97.7122 38.8507 97.6535 38.66L97.5875 38.396C97.5728 38.2933 97.5435 38.1907 97.4995 38.088C97.4702 38 97.4188 37.912 97.3455 37.824C97.3162 37.7653 97.2868 37.7067 97.2575 37.648C97.2282 37.5893 97.1988 37.5307 97.1695 37.472C97.1108 37.34 97.0595 37.208 97.0155 37.076C96.9862 36.9293 96.9568 36.7827 96.9275 36.636C96.9128 36.548 96.9055 36.4673 96.9055 36.394C96.9055 36.306 96.9055 36.218 96.9055 36.13C96.9055 36.0713 96.8982 36.0127 96.8835 35.954C96.8835 35.8953 96.8835 35.8367 96.8835 35.778C96.8688 35.6753 96.8615 35.5727 96.8615 35.47C96.8615 35.3673 96.8615 35.2647 96.8615 35.162C96.8615 35.0887 96.8615 35.008 96.8615 34.92C96.8615 34.832 96.8468 34.7513 96.8175 34.678V34.59C96.8175 34.4433 96.8102 34.304 96.7955 34.172C96.7808 34.04 96.7662 33.9007 96.7515 33.754C96.7515 33.7247 96.7442 33.7027 96.7295 33.688C96.7148 33.6 96.7002 33.512 96.6855 33.424C96.6708 33.3213 96.6488 33.226 96.6195 33.138C96.5902 33.0207 96.5608 32.9033 96.5315 32.786C96.5168 32.6687 96.4948 32.5513 96.4655 32.434C96.4508 32.3313 96.4362 32.236 96.4215 32.148C96.4068 32.0453 96.3848 31.9427 96.3555 31.84C96.3408 31.7813 96.3262 31.73 96.3115 31.686C96.3115 31.6273 96.3115 31.5687 96.3115 31.51C96.2968 31.422 96.2822 31.3413 96.2675 31.268C96.2675 31.18 96.2675 31.0993 96.2675 31.026C96.2528 30.9087 96.2382 30.7913 96.2235 30.674C96.2088 30.542 96.1868 30.4173 96.1575 30.3C96.1428 30.2267 96.1282 30.1533 96.1135 30.08C96.1135 29.992 96.1135 29.9113 96.1135 29.838C96.0988 29.6473 96.0768 29.464 96.0475 29.288C96.0328 29.112 96.0255 28.9287 96.0255 28.738C96.0255 28.6647 96.0182 28.5987 96.0035 28.54C96.0035 28.4667 96.0035 28.4007 96.0035 28.342C95.9888 28.21 95.9668 28.078 95.9375 27.946C95.9228 27.7993 95.9082 27.66 95.8935 27.528L95.7615 26.648C95.7468 26.4867 95.7322 26.318 95.7175 26.142C95.7028 25.966 95.6955 25.7973 95.6955 25.636C95.6955 25.5333 95.6955 25.4307 95.6955 25.328C95.6955 25.2253 95.6882 25.1227 95.6735 25.02C95.6442 24.8293 95.6515 24.646 95.6955 24.47C95.7395 24.2647 95.8275 24.0887 95.9595 23.942C96.0035 23.8833 96.0475 23.832 96.0915 23.788C96.1355 23.744 96.1795 23.7 96.2235 23.656C96.3115 23.5827 96.4068 23.5313 96.5095 23.502C96.6268 23.4727 96.7368 23.4507 96.8395 23.436C96.9128 23.436 96.9862 23.4433 97.0595 23.458C97.1328 23.458 97.1988 23.4653 97.2575 23.48C97.3455 23.5093 97.4335 23.5313 97.5215 23.546C97.6242 23.546 97.7268 23.546 97.8295 23.546C98.0202 23.546 98.2035 23.546 98.3795 23.546C98.5702 23.546 98.7608 23.5533 98.9515 23.568C99.2888 23.568 99.6335 23.59 99.9855 23.634C100.191 23.6633 100.381 23.7073 100.557 23.766C100.748 23.81 100.939 23.8687 101.129 23.942C101.452 24.0593 101.753 24.1913 102.031 24.338C102.163 24.3967 102.288 24.47 102.405 24.558C102.523 24.6313 102.633 24.7193 102.735 24.822C102.779 24.866 102.823 24.91 102.867 24.954C102.911 24.998 102.948 25.0493 102.977 25.108C103.021 25.152 103.065 25.196 103.109 25.24C103.153 25.284 103.183 25.3427 103.197 25.416C103.227 25.4747 103.241 25.504 103.241 25.504C103.344 25.6507 103.417 25.812 103.461 25.988C103.52 26.164 103.564 26.34 103.593 26.516C103.623 26.6627 103.623 26.8093 103.593 26.956C103.579 27.088 103.564 27.2273 103.549 27.374C103.549 27.4767 103.542 27.572 103.527 27.66C103.513 27.748 103.491 27.836 103.461 27.924C103.447 28.0707 103.403 28.21 103.329 28.342C103.271 28.474 103.205 28.5987 103.131 28.716C103.131 28.7307 103.124 28.7453 103.109 28.76C103.095 28.76 103.08 28.7747 103.065 28.804C102.963 28.9213 102.845 29.0387 102.713 29.156C102.596 29.2733 102.457 29.376 102.295 29.464C102.237 29.4933 102.178 29.53 102.119 29.574C102.075 29.618 102.017 29.6547 101.943 29.684C101.914 29.7133 101.914 29.7427 101.943 29.772C102.002 29.8307 102.046 29.8673 102.075 29.882C102.178 29.97 102.281 30.058 102.383 30.146C102.501 30.234 102.611 30.322 102.713 30.41C102.831 30.4833 102.933 30.5713 103.021 30.674C103.109 30.762 103.205 30.85 103.307 30.938C103.41 31.0407 103.513 31.1433 103.615 31.246C103.718 31.3487 103.821 31.4513 103.923 31.554C103.953 31.5687 103.982 31.5907 104.011 31.62C104.041 31.6493 104.07 31.6787 104.099 31.708C104.173 31.7667 104.239 31.8253 104.297 31.884C104.356 31.9427 104.415 32.0087 104.473 32.082C104.503 32.1407 104.539 32.192 104.583 32.236C104.627 32.2653 104.671 32.302 104.715 32.346C104.774 32.39 104.825 32.434 104.869 32.478C104.913 32.522 104.965 32.5733 105.023 32.632C105.097 32.72 105.177 32.8153 105.265 32.918C105.353 33.006 105.441 33.094 105.529 33.182L105.661 33.336C105.691 33.3653 105.72 33.3947 105.749 33.424C105.779 33.4533 105.801 33.4827 105.815 33.512C105.947 33.6587 106.079 33.8053 106.211 33.952C106.358 34.0987 106.505 34.2527 106.651 34.414L106.783 34.546C106.871 34.6047 106.952 34.6853 107.025 34.788C107.113 34.876 107.194 34.9567 107.267 35.03C107.326 35.074 107.37 35.14 107.399 35.228C107.414 35.272 107.429 35.316 107.443 35.36C107.458 35.3893 107.473 35.426 107.487 35.47C107.531 35.5873 107.546 35.6973 107.531 35.8C107.517 35.8293 107.509 35.8807 107.509 35.954C107.509 36.0713 107.48 36.1813 107.421 36.284C107.377 36.3867 107.319 36.482 107.245 36.57L107.047 36.746C106.871 36.922 106.761 37.1493 106.717 37.428C106.703 37.5747 106.688 37.7213 106.673 37.868C106.673 38.0147 106.673 38.1687 106.673 38.33C106.673 38.4913 106.673 38.6527 106.673 38.814C106.673 38.9753 106.681 39.1367 106.695 39.298V39.584C106.71 39.628 106.717 39.7087 106.717 39.826V42.84C106.717 42.9427 106.71 43.0453 106.695 43.148C106.695 43.2653 106.695 43.3827 106.695 43.5C106.681 43.5587 106.673 43.6173 106.673 43.676C106.673 43.7347 106.673 43.7933 106.673 43.852V44.292C106.673 44.3653 106.681 44.424 106.695 44.468C106.725 44.7027 106.732 44.9373 106.717 45.172C106.717 45.4067 106.725 45.6487 106.739 45.898C106.739 46.03 106.681 46.1547 106.563 46.272C106.446 46.3893 106.329 46.3967 106.211 46.294ZM98.5335 28.738C98.5482 28.7233 98.5628 28.716 98.5775 28.716C98.5922 28.716 98.6068 28.7087 98.6215 28.694C98.8562 28.5327 99.0908 28.4593 99.3255 28.474C99.4135 28.474 99.4795 28.4813 99.5235 28.496C99.6408 28.5253 99.7435 28.5033 99.8315 28.43C99.9635 28.3567 100.095 28.298 100.227 28.254C100.359 28.1953 100.484 28.1293 100.601 28.056C100.616 28.056 100.623 28.056 100.623 28.056C100.623 28.0413 100.631 28.034 100.645 28.034C100.836 27.9753 101.012 27.8727 101.173 27.726C101.32 27.6233 101.401 27.5573 101.415 27.528C101.445 27.484 101.474 27.3667 101.503 27.176V27.088C101.503 27 101.496 26.9193 101.481 26.846C101.467 26.7727 101.459 26.7067 101.459 26.648C101.415 26.4867 101.327 26.362 101.195 26.274C101.063 26.186 100.924 26.12 100.777 26.076C100.616 26.0027 100.447 25.9513 100.271 25.922C100.095 25.878 99.9268 25.8413 99.7655 25.812C99.7508 25.812 99.7362 25.812 99.7215 25.812C99.7215 25.7973 99.7142 25.79 99.6995 25.79C99.5528 25.7607 99.4208 25.79 99.3035 25.878C99.3035 25.878 99.2962 25.878 99.2815 25.878C99.2815 25.878 99.2742 25.8853 99.2595 25.9C99.0982 25.988 98.9515 26.01 98.8195 25.966H98.7095C98.4895 25.966 98.3355 26.0613 98.2475 26.252C98.2182 26.34 98.2035 26.406 98.2035 26.45C98.2035 26.5233 98.2035 26.604 98.2035 26.692C98.2035 26.78 98.2108 26.8607 98.2255 26.934C98.2548 27.022 98.2695 27.088 98.2695 27.132C98.2695 27.2347 98.2768 27.33 98.2915 27.418C98.3062 27.506 98.3208 27.594 98.3355 27.682C98.3502 27.6967 98.3575 27.726 98.3575 27.77C98.3428 27.8287 98.3355 27.88 98.3355 27.924C98.3502 27.968 98.3575 28.0193 98.3575 28.078C98.3722 28.1367 98.3795 28.188 98.3795 28.232C98.3942 28.276 98.3942 28.32 98.3795 28.364C98.3795 28.4813 98.4015 28.5987 98.4455 28.716C98.4455 28.7307 98.4528 28.7453 98.4675 28.76C98.4968 28.76 98.5188 28.7527 98.5335 28.738ZM112.699 41.014C112.494 41.102 112.325 41.036 112.193 40.816C112.12 40.7133 112.068 40.574 112.039 40.398C112.024 40.266 112.002 40.134 111.973 40.002C111.944 39.87 111.914 39.7307 111.885 39.584C111.87 39.5253 111.848 39.4667 111.819 39.408C111.804 39.3493 111.782 39.2907 111.753 39.232C111.709 39.144 111.665 39.056 111.621 38.968C111.577 38.88 111.526 38.7993 111.467 38.726C111.408 38.6087 111.372 38.528 111.357 38.484L111.247 38.242C111.159 38.0367 111.115 37.824 111.115 37.604C111.1 37.5013 111.093 37.3987 111.093 37.296C111.108 37.1933 111.122 37.0907 111.137 36.988C111.181 36.724 111.174 36.482 111.115 36.262L110.917 35.272C110.902 35.184 110.888 35.096 110.873 35.008C110.858 34.9053 110.844 34.8027 110.829 34.7L110.763 34.392C110.748 34.26 110.734 34.128 110.719 33.996C110.704 33.864 110.69 33.7393 110.675 33.622C110.66 33.578 110.653 33.534 110.653 33.49C110.653 33.446 110.653 33.402 110.653 33.358C110.653 33.1967 110.602 33.0573 110.499 32.94C110.44 32.8667 110.382 32.7933 110.323 32.72C110.279 32.632 110.242 32.5513 110.213 32.478C110.154 32.39 110.096 32.3093 110.037 32.236C109.993 32.148 109.949 32.06 109.905 31.972C109.861 31.884 109.788 31.8327 109.685 31.818C109.597 31.8033 109.516 31.7667 109.443 31.708C109.34 31.62 109.245 31.5247 109.157 31.422C109.128 31.3633 109.098 31.3193 109.069 31.29C109.025 31.2313 109.01 31.1727 109.025 31.114C109.054 31.07 109.054 31.026 109.025 30.982C108.981 30.9087 108.966 30.8427 108.981 30.784C108.996 30.7253 109.01 30.6667 109.025 30.608C109.025 30.5493 109.04 30.498 109.069 30.454C109.098 30.41 109.128 30.366 109.157 30.322C109.216 30.234 109.282 30.1607 109.355 30.102C109.443 30.0287 109.531 29.9627 109.619 29.904C109.678 29.8747 109.722 29.8453 109.751 29.816C109.824 29.7867 109.846 29.7427 109.817 29.684V29.618C109.788 29.4567 109.758 29.3027 109.729 29.156C109.7 29.0093 109.663 28.8627 109.619 28.716C109.604 28.6427 109.582 28.5693 109.553 28.496C109.538 28.4227 109.516 28.3493 109.487 28.276C109.472 28.2613 109.465 28.232 109.465 28.188C109.465 28.1147 109.458 28.0413 109.443 27.968C109.428 27.8947 109.414 27.8287 109.399 27.77C109.355 27.418 109.289 27.066 109.201 26.714C109.186 26.6113 109.15 26.5087 109.091 26.406C109.032 26.274 108.996 26.1567 108.981 26.054C108.937 25.8927 108.893 25.7387 108.849 25.592C108.805 25.4307 108.768 25.2767 108.739 25.13C108.695 24.9833 108.658 24.8367 108.629 24.69C108.614 24.5433 108.6 24.3967 108.585 24.25C108.57 23.898 108.695 23.612 108.959 23.392L109.025 23.326C109.142 23.2233 109.26 23.1573 109.377 23.128C109.509 23.084 109.648 23.062 109.795 23.062C109.927 23.0767 110.044 23.0693 110.147 23.04C110.264 22.996 110.374 22.9447 110.477 22.886C110.506 22.8713 110.55 22.864 110.609 22.864H110.675C110.719 22.864 110.756 22.8713 110.785 22.886C110.829 22.9153 110.88 22.9007 110.939 22.842C110.954 22.8273 110.976 22.8347 111.005 22.864C111.034 22.908 111.071 22.93 111.115 22.93C111.144 22.9447 111.174 22.952 111.203 22.952C111.247 22.952 111.291 22.9667 111.335 22.996C111.364 23.0107 111.394 23.0327 111.423 23.062C111.467 23.0913 111.496 23.1353 111.511 23.194L111.577 23.26C111.621 23.2747 111.658 23.3113 111.687 23.37C111.702 23.4287 111.753 23.458 111.841 23.458C111.885 23.458 111.951 23.4433 112.039 23.414C112.2 23.3847 112.354 23.3553 112.501 23.326C112.662 23.2967 112.816 23.2747 112.963 23.26C113.007 23.2453 113.058 23.238 113.117 23.238C113.41 23.2233 113.704 23.194 113.997 23.15C114.29 23.106 114.576 23.0547 114.855 22.996L114.965 22.952C115.258 22.908 115.537 22.82 115.801 22.688C115.904 22.6293 116.014 22.578 116.131 22.534C116.248 22.49 116.358 22.446 116.461 22.402L117.209 22.138C117.312 22.1087 117.378 22.0793 117.407 22.05C117.495 21.9767 117.576 21.9253 117.649 21.896C117.84 21.7787 118.052 21.7053 118.287 21.676C118.419 21.676 118.551 21.698 118.683 21.742C118.888 21.83 119.079 21.9693 119.255 22.16C119.299 22.2333 119.314 22.314 119.299 22.402C119.255 22.49 119.255 22.5853 119.299 22.688C119.314 22.776 119.314 22.8493 119.299 22.908C119.284 22.9667 119.277 23.0253 119.277 23.084C119.277 23.1427 119.27 23.2013 119.255 23.26C119.255 23.3333 119.233 23.392 119.189 23.436C119.086 23.5827 118.984 23.6927 118.881 23.766C118.866 23.7807 118.852 23.7953 118.837 23.81C118.837 23.8247 118.822 23.8467 118.793 23.876C118.778 23.8907 118.764 23.9053 118.749 23.92C118.749 23.9347 118.734 23.9567 118.705 23.986C118.632 24.0447 118.566 24.1107 118.507 24.184C118.463 24.2573 118.412 24.3307 118.353 24.404C118.294 24.5067 118.221 24.6093 118.133 24.712C118.06 24.8 117.972 24.8807 117.869 24.954L117.693 25.152C117.605 25.2693 117.554 25.3793 117.539 25.482C117.51 25.614 117.48 25.746 117.451 25.878C117.436 25.9953 117.429 26.12 117.429 26.252L117.363 26.714C117.363 26.7727 117.348 26.8313 117.319 26.89C117.26 27.0367 117.143 27.11 116.967 27.11C116.952 27.1247 116.93 27.132 116.901 27.132C116.886 27.1173 116.872 27.11 116.857 27.11C116.725 27.0367 116.637 26.9413 116.593 26.824C116.534 26.6333 116.49 26.4207 116.461 26.186C116.461 26.1127 116.454 26.0393 116.439 25.966C116.439 25.878 116.432 25.7973 116.417 25.724L116.351 25.57C116.322 25.4673 116.263 25.4453 116.175 25.504C116.16 25.504 116.138 25.5113 116.109 25.526C116.094 25.5407 116.072 25.5553 116.043 25.57C115.984 25.5993 115.926 25.636 115.867 25.68C115.823 25.7093 115.779 25.746 115.735 25.79C115.603 25.8633 115.442 25.9367 115.251 26.01C114.987 26.098 114.745 26.23 114.525 26.406C114.496 26.4207 114.459 26.4427 114.415 26.472C114.386 26.5013 114.349 26.5307 114.305 26.56C114.261 26.5893 114.217 26.6187 114.173 26.648C114.129 26.6773 114.078 26.7067 114.019 26.736L113.865 26.824C113.821 26.8533 113.77 26.912 113.711 27C113.696 27.0733 113.674 27.154 113.645 27.242C113.63 27.3153 113.623 27.396 113.623 27.484C113.623 27.616 113.616 27.748 113.601 27.88C113.601 28.012 113.608 28.144 113.623 28.276C113.623 28.3493 113.623 28.43 113.623 28.518C113.623 28.5913 113.608 28.6647 113.579 28.738C113.55 28.8407 113.586 28.8773 113.689 28.848C113.762 28.848 113.821 28.8407 113.865 28.826C114.026 28.7967 114.188 28.7747 114.349 28.76C114.525 28.7307 114.686 28.7013 114.833 28.672L115.317 28.606C115.39 28.5913 115.449 28.5767 115.493 28.562C115.552 28.5473 115.61 28.5253 115.669 28.496C115.757 28.4373 115.845 28.4007 115.933 28.386C116.021 28.3713 116.109 28.3567 116.197 28.342C116.388 28.298 116.578 28.3347 116.769 28.452L117.055 28.65C117.114 28.7087 117.143 28.7673 117.143 28.826C117.172 28.9287 117.209 28.98 117.253 28.98C117.297 28.9653 117.326 28.9653 117.341 28.98C117.385 29.0387 117.422 29.1047 117.451 29.178C117.495 29.2367 117.524 29.3027 117.539 29.376C117.539 29.4347 117.517 29.4713 117.473 29.486C117.414 29.486 117.37 29.508 117.341 29.552C117.312 29.596 117.282 29.64 117.253 29.684C117.238 29.6987 117.231 29.7133 117.231 29.728C117.246 29.7427 117.253 29.7573 117.253 29.772C117.282 29.816 117.282 29.8673 117.253 29.926C117.238 29.9553 117.224 29.992 117.209 30.036C117.194 30.0653 117.18 30.0947 117.165 30.124C117.106 30.256 117.018 30.366 116.901 30.454C116.842 30.5127 116.791 30.5567 116.747 30.586C116.63 30.6593 116.52 30.7913 116.417 30.982C116.402 31.0113 116.388 31.048 116.373 31.092C116.358 31.1213 116.336 31.158 116.307 31.202C116.263 31.2607 116.197 31.3047 116.109 31.334C115.962 31.3633 115.845 31.356 115.757 31.312L115.625 31.246C115.537 31.2167 115.464 31.224 115.405 31.268C115.39 31.2827 115.354 31.3047 115.295 31.334C115.163 31.3927 115.016 31.4 114.855 31.356C114.782 31.3267 114.701 31.29 114.613 31.246C114.54 31.202 114.466 31.1653 114.393 31.136C114.364 31.1213 114.334 31.0993 114.305 31.07C114.246 31.026 114.18 31.0187 114.107 31.048C114.019 31.0627 113.931 31.0847 113.843 31.114C113.755 31.1287 113.667 31.1507 113.579 31.18C113.447 31.1947 113.3 31.2387 113.139 31.312C113.095 31.312 113.051 31.334 113.007 31.378C112.934 31.4367 112.904 31.5027 112.919 31.576V31.62C112.963 31.752 112.992 31.884 113.007 32.016C113.036 32.148 113.058 32.28 113.073 32.412L113.205 33.336C113.205 33.3507 113.205 33.3653 113.205 33.38C113.22 33.38 113.227 33.38 113.227 33.38C113.227 33.5413 113.234 33.7027 113.249 33.864C113.264 34.0253 113.271 34.1867 113.271 34.348C113.271 34.5387 113.271 34.722 113.271 34.898C113.286 35.074 113.293 35.25 113.293 35.426V35.69C113.322 35.7487 113.366 35.778 113.425 35.778L113.711 35.712C113.784 35.6973 113.85 35.6827 113.909 35.668C113.982 35.6533 114.048 35.6387 114.107 35.624L114.503 35.558C114.591 35.558 114.657 35.5507 114.701 35.536C114.892 35.5067 115.082 35.47 115.273 35.426C115.464 35.382 115.654 35.3453 115.845 35.316C115.933 35.3013 116.021 35.2867 116.109 35.272C116.212 35.2573 116.314 35.2427 116.417 35.228C116.578 35.2133 116.732 35.1987 116.879 35.184C117.04 35.1547 117.194 35.1327 117.341 35.118C117.414 35.1033 117.48 35.096 117.539 35.096C117.612 35.0813 117.678 35.074 117.737 35.074C117.825 35.0447 117.891 35.0153 117.935 34.986C117.964 34.9567 117.994 34.9347 118.023 34.92C118.067 34.9053 118.096 34.8907 118.111 34.876C118.243 34.7587 118.39 34.7147 118.551 34.744C118.595 34.744 118.632 34.7367 118.661 34.722C118.69 34.722 118.727 34.722 118.771 34.722C118.815 34.722 118.852 34.7293 118.881 34.744C118.954 34.7733 119.02 34.8027 119.079 34.832C119.138 34.8467 119.196 34.876 119.255 34.92C119.27 34.9347 119.284 34.942 119.299 34.942C119.416 35.0153 119.534 35.0227 119.651 34.964C119.695 34.9347 119.746 34.9127 119.805 34.898C119.864 34.8687 119.922 34.8467 119.981 34.832C120.128 34.788 120.274 34.788 120.421 34.832C120.465 34.8467 120.509 34.8613 120.553 34.876C120.612 34.8907 120.656 34.9127 120.685 34.942C120.773 34.986 120.854 35.0593 120.927 35.162C121.059 35.3527 121.147 35.5507 121.191 35.756C121.22 35.8 121.22 35.844 121.191 35.888C121.176 35.932 121.162 35.976 121.147 36.02C121.132 36.0493 121.118 36.086 121.103 36.13C121.088 36.1593 121.074 36.196 121.059 36.24C121.044 36.2693 121.03 36.2987 121.015 36.328C121.015 36.3867 120.986 36.4307 120.927 36.46C120.868 36.4747 120.824 36.5187 120.795 36.592C120.766 36.6507 120.729 36.6653 120.685 36.636C120.626 36.636 120.59 36.6433 120.575 36.658C120.502 36.7167 120.421 36.7607 120.333 36.79C120.245 36.8193 120.157 36.8487 120.069 36.878C119.908 36.9073 119.746 36.9513 119.585 37.01C119.424 37.054 119.262 37.098 119.101 37.142C119.013 37.1713 118.947 37.186 118.903 37.186C118.815 37.2007 118.727 37.2227 118.639 37.252C118.566 37.2667 118.492 37.2887 118.419 37.318C118.404 37.3327 118.382 37.34 118.353 37.34C118.338 37.34 118.316 37.3473 118.287 37.362C118.184 37.3767 118.074 37.3987 117.957 37.428C117.854 37.4573 117.752 37.494 117.649 37.538C117.605 37.5673 117.539 37.582 117.451 37.582C117.334 37.582 117.209 37.604 117.077 37.648C116.93 37.6773 116.784 37.7067 116.637 37.736C116.49 37.7507 116.336 37.7727 116.175 37.802L115.713 37.868C115.522 37.912 115.354 37.9633 115.207 38.022C115.178 38.0367 115.141 38.0513 115.097 38.066C115.053 38.0807 115.016 38.0953 114.987 38.11C114.679 38.1687 114.393 38.2787 114.129 38.44L113.953 38.506C113.836 38.5207 113.718 38.5573 113.601 38.616C113.498 38.6747 113.388 38.7333 113.271 38.792C113.183 38.8507 113.124 38.8947 113.095 38.924C113.066 38.9533 113.036 38.9973 113.007 39.056C112.934 39.232 112.897 39.386 112.897 39.518C112.912 39.6207 112.919 39.716 112.919 39.804C112.919 39.9067 112.926 40.0167 112.941 40.134C112.97 40.31 112.963 40.4713 112.919 40.618C112.919 40.6767 112.904 40.75 112.875 40.838C112.816 40.926 112.758 40.9847 112.699 41.014ZM112.699 29.046C112.758 29.0167 112.787 28.9727 112.787 28.914C112.772 28.8847 112.765 28.8553 112.765 28.826C112.765 28.782 112.758 28.7453 112.743 28.716C112.67 28.5253 112.633 28.3567 112.633 28.21C112.633 28.1807 112.626 28.1587 112.611 28.144C112.611 28.1293 112.611 28.1147 112.611 28.1C112.582 28.0707 112.567 28.056 112.567 28.056V28.1C112.552 28.1733 112.538 28.254 112.523 28.342C112.523 28.43 112.523 28.518 112.523 28.606V28.958C112.552 29.002 112.582 29.024 112.611 29.024C112.626 29.0387 112.655 29.046 112.699 29.046ZM126.471 41.014C126.265 41.102 126.097 41.036 125.965 40.816C125.891 40.7133 125.84 40.574 125.811 40.398C125.796 40.266 125.774 40.134 125.745 40.002C125.715 39.87 125.686 39.7307 125.657 39.584C125.642 39.5253 125.62 39.4667 125.591 39.408C125.576 39.3493 125.554 39.2907 125.525 39.232C125.481 39.144 125.437 39.056 125.393 38.968C125.349 38.88 125.297 38.7993 125.239 38.726C125.18 38.6087 125.143 38.528 125.129 38.484L125.019 38.242C124.931 38.0367 124.887 37.824 124.887 37.604C124.872 37.5013 124.865 37.3987 124.865 37.296C124.879 37.1933 124.894 37.0907 124.909 36.988C124.953 36.724 124.945 36.482 124.887 36.262L124.689 35.272C124.674 35.184 124.659 35.096 124.645 35.008C124.63 34.9053 124.615 34.8027 124.601 34.7L124.535 34.392C124.52 34.26 124.505 34.128 124.491 33.996C124.476 33.864 124.461 33.7393 124.447 33.622C124.432 33.578 124.425 33.534 124.425 33.49C124.425 33.446 124.425 33.402 124.425 33.358C124.425 33.1967 124.373 33.0573 124.271 32.94C124.212 32.8667 124.153 32.7933 124.095 32.72C124.051 32.632 124.014 32.5513 123.985 32.478C123.926 32.39 123.867 32.3093 123.809 32.236C123.765 32.148 123.721 32.06 123.677 31.972C123.633 31.884 123.559 31.8327 123.457 31.818C123.369 31.8033 123.288 31.7667 123.215 31.708C123.112 31.62 123.017 31.5247 122.929 31.422C122.899 31.3633 122.87 31.3193 122.841 31.29C122.797 31.2313 122.782 31.1727 122.797 31.114C122.826 31.07 122.826 31.026 122.797 30.982C122.753 30.9087 122.738 30.8427 122.753 30.784C122.767 30.7253 122.782 30.6667 122.797 30.608C122.797 30.5493 122.811 30.498 122.841 30.454C122.87 30.41 122.899 30.366 122.929 30.322C122.987 30.234 123.053 30.1607 123.127 30.102C123.215 30.0287 123.303 29.9627 123.391 29.904C123.449 29.8747 123.493 29.8453 123.523 29.816C123.596 29.7867 123.618 29.7427 123.589 29.684V29.618C123.559 29.4567 123.53 29.3027 123.501 29.156C123.471 29.0093 123.435 28.8627 123.391 28.716C123.376 28.6427 123.354 28.5693 123.325 28.496C123.31 28.4227 123.288 28.3493 123.259 28.276C123.244 28.2613 123.237 28.232 123.237 28.188C123.237 28.1147 123.229 28.0413 123.215 27.968C123.2 27.8947 123.185 27.8287 123.171 27.77C123.127 27.418 123.061 27.066 122.973 26.714C122.958 26.6113 122.921 26.5087 122.863 26.406C122.804 26.274 122.767 26.1567 122.753 26.054C122.709 25.8927 122.665 25.7387 122.621 25.592C122.577 25.4307 122.54 25.2767 122.511 25.13C122.467 24.9833 122.43 24.8367 122.401 24.69C122.386 24.5433 122.371 24.3967 122.357 24.25C122.342 23.898 122.467 23.612 122.731 23.392L122.797 23.326C122.914 23.2233 123.031 23.1573 123.149 23.128C123.281 23.084 123.42 23.062 123.567 23.062C123.699 23.0767 123.816 23.0693 123.919 23.04C124.036 22.996 124.146 22.9447 124.249 22.886C124.278 22.8713 124.322 22.864 124.381 22.864H124.447C124.491 22.864 124.527 22.8713 124.557 22.886C124.601 22.9153 124.652 22.9007 124.711 22.842C124.725 22.8273 124.747 22.8347 124.777 22.864C124.806 22.908 124.843 22.93 124.887 22.93C124.916 22.9447 124.945 22.952 124.975 22.952C125.019 22.952 125.063 22.9667 125.107 22.996C125.136 23.0107 125.165 23.0327 125.195 23.062C125.239 23.0913 125.268 23.1353 125.283 23.194L125.349 23.26C125.393 23.2747 125.429 23.3113 125.459 23.37C125.473 23.4287 125.525 23.458 125.613 23.458C125.657 23.458 125.723 23.4433 125.811 23.414C125.972 23.3847 126.126 23.3553 126.273 23.326C126.434 23.2967 126.588 23.2747 126.735 23.26C126.779 23.2453 126.83 23.238 126.889 23.238C127.182 23.2233 127.475 23.194 127.769 23.15C128.062 23.106 128.348 23.0547 128.627 22.996L128.737 22.952C129.03 22.908 129.309 22.82 129.573 22.688C129.675 22.6293 129.785 22.578 129.903 22.534C130.02 22.49 130.13 22.446 130.233 22.402L130.981 22.138C131.083 22.1087 131.149 22.0793 131.179 22.05C131.267 21.9767 131.347 21.9253 131.421 21.896C131.611 21.7787 131.824 21.7053 132.059 21.676C132.191 21.676 132.323 21.698 132.455 21.742C132.66 21.83 132.851 21.9693 133.027 22.16C133.071 22.2333 133.085 22.314 133.071 22.402C133.027 22.49 133.027 22.5853 133.071 22.688C133.085 22.776 133.085 22.8493 133.071 22.908C133.056 22.9667 133.049 23.0253 133.049 23.084C133.049 23.1427 133.041 23.2013 133.027 23.26C133.027 23.3333 133.005 23.392 132.961 23.436C132.858 23.5827 132.755 23.6927 132.653 23.766C132.638 23.7807 132.623 23.7953 132.609 23.81C132.609 23.8247 132.594 23.8467 132.565 23.876C132.55 23.8907 132.535 23.9053 132.521 23.92C132.521 23.9347 132.506 23.9567 132.477 23.986C132.403 24.0447 132.337 24.1107 132.279 24.184C132.235 24.2573 132.183 24.3307 132.125 24.404C132.066 24.5067 131.993 24.6093 131.905 24.712C131.831 24.8 131.743 24.8807 131.641 24.954L131.465 25.152C131.377 25.2693 131.325 25.3793 131.311 25.482C131.281 25.614 131.252 25.746 131.223 25.878C131.208 25.9953 131.201 26.12 131.201 26.252L131.135 26.714C131.135 26.7727 131.12 26.8313 131.091 26.89C131.032 27.0367 130.915 27.11 130.739 27.11C130.724 27.1247 130.702 27.132 130.673 27.132C130.658 27.1173 130.643 27.11 130.629 27.11C130.497 27.0367 130.409 26.9413 130.365 26.824C130.306 26.6333 130.262 26.4207 130.233 26.186C130.233 26.1127 130.225 26.0393 130.211 25.966C130.211 25.878 130.203 25.7973 130.189 25.724L130.123 25.57C130.093 25.4673 130.035 25.4453 129.947 25.504C129.932 25.504 129.91 25.5113 129.881 25.526C129.866 25.5407 129.844 25.5553 129.815 25.57C129.756 25.5993 129.697 25.636 129.639 25.68C129.595 25.7093 129.551 25.746 129.507 25.79C129.375 25.8633 129.213 25.9367 129.023 26.01C128.759 26.098 128.517 26.23 128.297 26.406C128.267 26.4207 128.231 26.4427 128.187 26.472C128.157 26.5013 128.121 26.5307 128.077 26.56C128.033 26.5893 127.989 26.6187 127.945 26.648C127.901 26.6773 127.849 26.7067 127.791 26.736L127.637 26.824C127.593 26.8533 127.541 26.912 127.483 27C127.468 27.0733 127.446 27.154 127.417 27.242C127.402 27.3153 127.395 27.396 127.395 27.484C127.395 27.616 127.387 27.748 127.373 27.88C127.373 28.012 127.38 28.144 127.395 28.276C127.395 28.3493 127.395 28.43 127.395 28.518C127.395 28.5913 127.38 28.6647 127.351 28.738C127.321 28.8407 127.358 28.8773 127.461 28.848C127.534 28.848 127.593 28.8407 127.637 28.826C127.798 28.7967 127.959 28.7747 128.121 28.76C128.297 28.7307 128.458 28.7013 128.605 28.672L129.089 28.606C129.162 28.5913 129.221 28.5767 129.265 28.562C129.323 28.5473 129.382 28.5253 129.441 28.496C129.529 28.4373 129.617 28.4007 129.705 28.386C129.793 28.3713 129.881 28.3567 129.969 28.342C130.159 28.298 130.35 28.3347 130.541 28.452L130.827 28.65C130.885 28.7087 130.915 28.7673 130.915 28.826C130.944 28.9287 130.981 28.98 131.025 28.98C131.069 28.9653 131.098 28.9653 131.113 28.98C131.157 29.0387 131.193 29.1047 131.223 29.178C131.267 29.2367 131.296 29.3027 131.311 29.376C131.311 29.4347 131.289 29.4713 131.245 29.486C131.186 29.486 131.142 29.508 131.113 29.552C131.083 29.596 131.054 29.64 131.025 29.684C131.01 29.6987 131.003 29.7133 131.003 29.728C131.017 29.7427 131.025 29.7573 131.025 29.772C131.054 29.816 131.054 29.8673 131.025 29.926C131.01 29.9553 130.995 29.992 130.981 30.036C130.966 30.0653 130.951 30.0947 130.937 30.124C130.878 30.256 130.79 30.366 130.673 30.454C130.614 30.5127 130.563 30.5567 130.519 30.586C130.401 30.6593 130.291 30.7913 130.189 30.982C130.174 31.0113 130.159 31.048 130.145 31.092C130.13 31.1213 130.108 31.158 130.079 31.202C130.035 31.2607 129.969 31.3047 129.881 31.334C129.734 31.3633 129.617 31.356 129.529 31.312L129.397 31.246C129.309 31.2167 129.235 31.224 129.177 31.268C129.162 31.2827 129.125 31.3047 129.067 31.334C128.935 31.3927 128.788 31.4 128.627 31.356C128.553 31.3267 128.473 31.29 128.385 31.246C128.311 31.202 128.238 31.1653 128.165 31.136C128.135 31.1213 128.106 31.0993 128.077 31.07C128.018 31.026 127.952 31.0187 127.879 31.048C127.791 31.0627 127.703 31.0847 127.615 31.114C127.527 31.1287 127.439 31.1507 127.351 31.18C127.219 31.1947 127.072 31.2387 126.911 31.312C126.867 31.312 126.823 31.334 126.779 31.378C126.705 31.4367 126.676 31.5027 126.691 31.576V31.62C126.735 31.752 126.764 31.884 126.779 32.016C126.808 32.148 126.83 32.28 126.845 32.412L126.977 33.336C126.977 33.3507 126.977 33.3653 126.977 33.38C126.991 33.38 126.999 33.38 126.999 33.38C126.999 33.5413 127.006 33.7027 127.021 33.864C127.035 34.0253 127.043 34.1867 127.043 34.348C127.043 34.5387 127.043 34.722 127.043 34.898C127.057 35.074 127.065 35.25 127.065 35.426V35.69C127.094 35.7487 127.138 35.778 127.197 35.778L127.483 35.712C127.556 35.6973 127.622 35.6827 127.681 35.668C127.754 35.6533 127.82 35.6387 127.879 35.624L128.275 35.558C128.363 35.558 128.429 35.5507 128.473 35.536C128.663 35.5067 128.854 35.47 129.045 35.426C129.235 35.382 129.426 35.3453 129.617 35.316C129.705 35.3013 129.793 35.2867 129.881 35.272C129.983 35.2573 130.086 35.2427 130.189 35.228C130.35 35.2133 130.504 35.1987 130.651 35.184C130.812 35.1547 130.966 35.1327 131.113 35.118C131.186 35.1033 131.252 35.096 131.311 35.096C131.384 35.0813 131.45 35.074 131.509 35.074C131.597 35.0447 131.663 35.0153 131.707 34.986C131.736 34.9567 131.765 34.9347 131.795 34.92C131.839 34.9053 131.868 34.8907 131.883 34.876C132.015 34.7587 132.161 34.7147 132.323 34.744C132.367 34.744 132.403 34.7367 132.433 34.722C132.462 34.722 132.499 34.722 132.543 34.722C132.587 34.722 132.623 34.7293 132.653 34.744C132.726 34.7733 132.792 34.8027 132.851 34.832C132.909 34.8467 132.968 34.876 133.027 34.92C133.041 34.9347 133.056 34.942 133.071 34.942C133.188 35.0153 133.305 35.0227 133.423 34.964C133.467 34.9347 133.518 34.9127 133.577 34.898C133.635 34.8687 133.694 34.8467 133.753 34.832C133.899 34.788 134.046 34.788 134.193 34.832C134.237 34.8467 134.281 34.8613 134.325 34.876C134.383 34.8907 134.427 34.9127 134.457 34.942C134.545 34.986 134.625 35.0593 134.699 35.162C134.831 35.3527 134.919 35.5507 134.963 35.756C134.992 35.8 134.992 35.844 134.963 35.888C134.948 35.932 134.933 35.976 134.919 36.02C134.904 36.0493 134.889 36.086 134.875 36.13C134.86 36.1593 134.845 36.196 134.831 36.24C134.816 36.2693 134.801 36.2987 134.787 36.328C134.787 36.3867 134.757 36.4307 134.699 36.46C134.64 36.4747 134.596 36.5187 134.567 36.592C134.537 36.6507 134.501 36.6653 134.457 36.636C134.398 36.636 134.361 36.6433 134.347 36.658C134.273 36.7167 134.193 36.7607 134.105 36.79C134.017 36.8193 133.929 36.8487 133.841 36.878C133.679 36.9073 133.518 36.9513 133.357 37.01C133.195 37.054 133.034 37.098 132.873 37.142C132.785 37.1713 132.719 37.186 132.675 37.186C132.587 37.2007 132.499 37.2227 132.411 37.252C132.337 37.2667 132.264 37.2887 132.191 37.318C132.176 37.3327 132.154 37.34 132.125 37.34C132.11 37.34 132.088 37.3473 132.059 37.362C131.956 37.3767 131.846 37.3987 131.729 37.428C131.626 37.4573 131.523 37.494 131.421 37.538C131.377 37.5673 131.311 37.582 131.223 37.582C131.105 37.582 130.981 37.604 130.849 37.648C130.702 37.6773 130.555 37.7067 130.409 37.736C130.262 37.7507 130.108 37.7727 129.947 37.802L129.485 37.868C129.294 37.912 129.125 37.9633 128.979 38.022C128.949 38.0367 128.913 38.0513 128.869 38.066C128.825 38.0807 128.788 38.0953 128.759 38.11C128.451 38.1687 128.165 38.2787 127.901 38.44L127.725 38.506C127.607 38.5207 127.49 38.5573 127.373 38.616C127.27 38.6747 127.16 38.7333 127.043 38.792C126.955 38.8507 126.896 38.8947 126.867 38.924C126.837 38.9533 126.808 38.9973 126.779 39.056C126.705 39.232 126.669 39.386 126.669 39.518C126.683 39.6207 126.691 39.716 126.691 39.804C126.691 39.9067 126.698 40.0167 126.713 40.134C126.742 40.31 126.735 40.4713 126.691 40.618C126.691 40.6767 126.676 40.75 126.647 40.838C126.588 40.926 126.529 40.9847 126.471 41.014ZM126.471 29.046C126.529 29.0167 126.559 28.9727 126.559 28.914C126.544 28.8847 126.537 28.8553 126.537 28.826C126.537 28.782 126.529 28.7453 126.515 28.716C126.441 28.5253 126.405 28.3567 126.405 28.21C126.405 28.1807 126.397 28.1587 126.383 28.144C126.383 28.1293 126.383 28.1147 126.383 28.1C126.353 28.0707 126.339 28.056 126.339 28.056V28.1C126.324 28.1733 126.309 28.254 126.295 28.342C126.295 28.43 126.295 28.518 126.295 28.606V28.958C126.324 29.002 126.353 29.024 126.383 29.024C126.397 29.0387 126.427 29.046 126.471 29.046ZM147.075 46.294L146.789 46.03C146.759 46.0007 146.745 45.9713 146.745 45.942L146.679 45.722C146.679 45.6047 146.657 45.48 146.613 45.348C146.598 45.3187 146.591 45.282 146.591 45.238C146.591 45.194 146.583 45.1573 146.569 45.128C146.569 45.0107 146.561 44.8933 146.547 44.776C146.532 44.6733 146.51 44.5707 146.481 44.468V44.38C146.466 44.1747 146.444 43.962 146.415 43.742C146.385 43.5367 146.371 43.3313 146.371 43.126V42.818C146.371 42.774 146.371 42.73 146.371 42.686C146.385 42.642 146.385 42.5907 146.371 42.532C146.371 42.444 146.363 42.3413 146.349 42.224C146.349 42.1213 146.349 42.0187 146.349 41.916C146.349 41.8427 146.349 41.762 146.349 41.674C146.349 41.586 146.341 41.5053 146.327 41.432C146.312 41.2853 146.297 41.1387 146.283 40.992C146.268 40.8453 146.253 40.6987 146.239 40.552C146.224 40.4053 146.209 40.2587 146.195 40.112C146.195 39.9653 146.195 39.8187 146.195 39.672C146.165 39.5547 146.143 39.4447 146.129 39.342C146.114 39.2393 146.092 39.1367 146.063 39.034C146.033 38.902 145.982 38.7993 145.909 38.726C145.85 38.6527 145.791 38.5793 145.733 38.506C145.689 38.4473 145.652 38.3813 145.623 38.308C145.593 38.2493 145.564 38.2053 145.535 38.176C145.461 38.1027 145.388 38.022 145.315 37.934C145.256 37.8313 145.19 37.736 145.117 37.648C145.043 37.516 144.963 37.3987 144.875 37.296C144.831 37.2227 144.779 37.1567 144.721 37.098C144.677 37.0247 144.64 36.9587 144.611 36.9C144.581 36.8267 144.537 36.768 144.479 36.724C144.435 36.6653 144.391 36.614 144.347 36.57L143.511 35.646C143.379 35.4993 143.254 35.3527 143.137 35.206C143.107 35.1327 143.071 35.074 143.027 35.03C142.983 34.986 142.931 34.9347 142.873 34.876L142.345 34.326C142.301 34.2673 142.249 34.2233 142.191 34.194C142.147 34.15 142.095 34.1133 142.037 34.084C141.919 34.0253 141.802 33.9373 141.685 33.82C141.685 33.8053 141.67 33.7833 141.641 33.754C141.553 33.6953 141.465 33.6293 141.377 33.556C141.303 33.4827 141.23 33.4093 141.157 33.336C141.069 33.248 141.003 33.1893 140.959 33.16C140.841 33.0427 140.717 32.9327 140.585 32.83C140.467 32.7273 140.35 32.6173 140.233 32.5C140.174 32.4413 140.115 32.39 140.057 32.346C140.013 32.2873 139.969 32.2287 139.925 32.17L139.793 32.038C139.793 32.038 139.785 32.038 139.771 32.038C139.771 32.038 139.771 32.0453 139.771 32.06L139.749 32.082V32.104C139.822 32.3973 139.873 32.72 139.903 33.072C139.903 33.116 139.91 33.1453 139.925 33.16C139.969 33.3067 139.983 33.4533 139.969 33.6C139.969 33.732 139.954 33.8713 139.925 34.018C139.895 34.1353 139.917 34.2307 139.991 34.304C140.02 34.3333 140.02 34.3627 139.991 34.392C139.991 34.4653 139.991 34.502 139.991 34.502C140.005 34.5753 140.013 34.6487 140.013 34.722C140.013 34.7953 140.013 34.8687 140.013 34.942C140.013 35.0447 140.02 35.118 140.035 35.162C140.079 35.382 140.093 35.5873 140.079 35.778C140.064 35.8367 140.057 35.9027 140.057 35.976C140.057 36.0493 140.049 36.1227 140.035 36.196C140.02 36.24 140.013 36.284 140.013 36.328C140.027 36.3573 140.035 36.3867 140.035 36.416C140.049 36.4747 140.057 36.5333 140.057 36.592C140.071 36.636 140.071 36.6873 140.057 36.746C140.057 36.878 140.027 36.9953 139.969 37.098C139.881 37.2447 139.763 37.3327 139.617 37.362C139.573 37.362 139.543 37.3693 139.529 37.384C139.455 37.4133 139.419 37.45 139.419 37.494C139.419 37.5673 139.411 37.6407 139.397 37.714C139.397 37.7727 139.397 37.8387 139.397 37.912V38.484C139.411 38.616 139.382 38.748 139.309 38.88C139.265 38.9533 139.206 39.0047 139.133 39.034C139.059 39.0633 138.986 39.0707 138.913 39.056C138.707 38.9827 138.575 38.8507 138.517 38.66L138.451 38.396C138.436 38.2933 138.407 38.1907 138.363 38.088C138.333 38 138.282 37.912 138.209 37.824C138.179 37.7653 138.15 37.7067 138.121 37.648C138.091 37.5893 138.062 37.5307 138.033 37.472C137.974 37.34 137.923 37.208 137.879 37.076C137.849 36.9293 137.82 36.7827 137.791 36.636C137.776 36.548 137.769 36.4673 137.769 36.394C137.769 36.306 137.769 36.218 137.769 36.13C137.769 36.0713 137.761 36.0127 137.747 35.954C137.747 35.8953 137.747 35.8367 137.747 35.778C137.732 35.6753 137.725 35.5727 137.725 35.47C137.725 35.3673 137.725 35.2647 137.725 35.162C137.725 35.0887 137.725 35.008 137.725 34.92C137.725 34.832 137.71 34.7513 137.681 34.678V34.59C137.681 34.4433 137.673 34.304 137.659 34.172C137.644 34.04 137.629 33.9007 137.615 33.754C137.615 33.7247 137.607 33.7027 137.593 33.688C137.578 33.6 137.563 33.512 137.549 33.424C137.534 33.3213 137.512 33.226 137.483 33.138C137.453 33.0207 137.424 32.9033 137.395 32.786C137.38 32.6687 137.358 32.5513 137.329 32.434C137.314 32.3313 137.299 32.236 137.285 32.148C137.27 32.0453 137.248 31.9427 137.219 31.84C137.204 31.7813 137.189 31.73 137.175 31.686C137.175 31.6273 137.175 31.5687 137.175 31.51C137.16 31.422 137.145 31.3413 137.131 31.268C137.131 31.18 137.131 31.0993 137.131 31.026C137.116 30.9087 137.101 30.7913 137.087 30.674C137.072 30.542 137.05 30.4173 137.021 30.3C137.006 30.2267 136.991 30.1533 136.977 30.08C136.977 29.992 136.977 29.9113 136.977 29.838C136.962 29.6473 136.94 29.464 136.911 29.288C136.896 29.112 136.889 28.9287 136.889 28.738C136.889 28.6647 136.881 28.5987 136.867 28.54C136.867 28.4667 136.867 28.4007 136.867 28.342C136.852 28.21 136.83 28.078 136.801 27.946C136.786 27.7993 136.771 27.66 136.757 27.528L136.625 26.648C136.61 26.4867 136.595 26.318 136.581 26.142C136.566 25.966 136.559 25.7973 136.559 25.636C136.559 25.5333 136.559 25.4307 136.559 25.328C136.559 25.2253 136.551 25.1227 136.537 25.02C136.507 24.8293 136.515 24.646 136.559 24.47C136.603 24.2647 136.691 24.0887 136.823 23.942C136.867 23.8833 136.911 23.832 136.955 23.788C136.999 23.744 137.043 23.7 137.087 23.656C137.175 23.5827 137.27 23.5313 137.373 23.502C137.49 23.4727 137.6 23.4507 137.703 23.436C137.776 23.436 137.849 23.4433 137.923 23.458C137.996 23.458 138.062 23.4653 138.121 23.48C138.209 23.5093 138.297 23.5313 138.385 23.546C138.487 23.546 138.59 23.546 138.693 23.546C138.883 23.546 139.067 23.546 139.243 23.546C139.433 23.546 139.624 23.5533 139.815 23.568C140.152 23.568 140.497 23.59 140.849 23.634C141.054 23.6633 141.245 23.7073 141.421 23.766C141.611 23.81 141.802 23.8687 141.993 23.942C142.315 24.0593 142.616 24.1913 142.895 24.338C143.027 24.3967 143.151 24.47 143.269 24.558C143.386 24.6313 143.496 24.7193 143.599 24.822C143.643 24.866 143.687 24.91 143.731 24.954C143.775 24.998 143.811 25.0493 143.841 25.108C143.885 25.152 143.929 25.196 143.973 25.24C144.017 25.284 144.046 25.3427 144.061 25.416C144.09 25.4747 144.105 25.504 144.105 25.504C144.207 25.6507 144.281 25.812 144.325 25.988C144.383 26.164 144.427 26.34 144.457 26.516C144.486 26.6627 144.486 26.8093 144.457 26.956C144.442 27.088 144.427 27.2273 144.413 27.374C144.413 27.4767 144.405 27.572 144.391 27.66C144.376 27.748 144.354 27.836 144.325 27.924C144.31 28.0707 144.266 28.21 144.193 28.342C144.134 28.474 144.068 28.5987 143.995 28.716C143.995 28.7307 143.987 28.7453 143.973 28.76C143.958 28.76 143.943 28.7747 143.929 28.804C143.826 28.9213 143.709 29.0387 143.577 29.156C143.459 29.2733 143.32 29.376 143.159 29.464C143.1 29.4933 143.041 29.53 142.983 29.574C142.939 29.618 142.88 29.6547 142.807 29.684C142.777 29.7133 142.777 29.7427 142.807 29.772C142.865 29.8307 142.909 29.8673 142.939 29.882C143.041 29.97 143.144 30.058 143.247 30.146C143.364 30.234 143.474 30.322 143.577 30.41C143.694 30.4833 143.797 30.5713 143.885 30.674C143.973 30.762 144.068 30.85 144.171 30.938C144.273 31.0407 144.376 31.1433 144.479 31.246C144.581 31.3487 144.684 31.4513 144.787 31.554C144.816 31.5687 144.845 31.5907 144.875 31.62C144.904 31.6493 144.933 31.6787 144.963 31.708C145.036 31.7667 145.102 31.8253 145.161 31.884C145.219 31.9427 145.278 32.0087 145.337 32.082C145.366 32.1407 145.403 32.192 145.447 32.236C145.491 32.2653 145.535 32.302 145.579 32.346C145.637 32.39 145.689 32.434 145.733 32.478C145.777 32.522 145.828 32.5733 145.887 32.632C145.96 32.72 146.041 32.8153 146.129 32.918C146.217 33.006 146.305 33.094 146.393 33.182L146.525 33.336C146.554 33.3653 146.583 33.3947 146.613 33.424C146.642 33.4533 146.664 33.4827 146.679 33.512C146.811 33.6587 146.943 33.8053 147.075 33.952C147.221 34.0987 147.368 34.2527 147.515 34.414L147.647 34.546C147.735 34.6047 147.815 34.6853 147.889 34.788C147.977 34.876 148.057 34.9567 148.131 35.03C148.189 35.074 148.233 35.14 148.263 35.228C148.277 35.272 148.292 35.316 148.307 35.36C148.321 35.3893 148.336 35.426 148.351 35.47C148.395 35.5873 148.409 35.6973 148.395 35.8C148.38 35.8293 148.373 35.8807 148.373 35.954C148.373 36.0713 148.343 36.1813 148.285 36.284C148.241 36.3867 148.182 36.482 148.109 36.57L147.911 36.746C147.735 36.922 147.625 37.1493 147.581 37.428C147.566 37.5747 147.551 37.7213 147.537 37.868C147.537 38.0147 147.537 38.1687 147.537 38.33C147.537 38.4913 147.537 38.6527 147.537 38.814C147.537 38.9753 147.544 39.1367 147.559 39.298V39.584C147.573 39.628 147.581 39.7087 147.581 39.826V42.84C147.581 42.9427 147.573 43.0453 147.559 43.148C147.559 43.2653 147.559 43.3827 147.559 43.5C147.544 43.5587 147.537 43.6173 147.537 43.676C147.537 43.7347 147.537 43.7933 147.537 43.852V44.292C147.537 44.3653 147.544 44.424 147.559 44.468C147.588 44.7027 147.595 44.9373 147.581 45.172C147.581 45.4067 147.588 45.6487 147.603 45.898C147.603 46.03 147.544 46.1547 147.427 46.272C147.309 46.3893 147.192 46.3967 147.075 46.294ZM139.397 28.738C139.411 28.7233 139.426 28.716 139.441 28.716C139.455 28.716 139.47 28.7087 139.485 28.694C139.719 28.5327 139.954 28.4593 140.189 28.474C140.277 28.474 140.343 28.4813 140.387 28.496C140.504 28.5253 140.607 28.5033 140.695 28.43C140.827 28.3567 140.959 28.298 141.091 28.254C141.223 28.1953 141.347 28.1293 141.465 28.056C141.479 28.056 141.487 28.056 141.487 28.056C141.487 28.0413 141.494 28.034 141.509 28.034C141.699 27.9753 141.875 27.8727 142.037 27.726C142.183 27.6233 142.264 27.5573 142.279 27.528C142.308 27.484 142.337 27.3667 142.367 27.176V27.088C142.367 27 142.359 26.9193 142.345 26.846C142.33 26.7727 142.323 26.7067 142.323 26.648C142.279 26.4867 142.191 26.362 142.059 26.274C141.927 26.186 141.787 26.12 141.641 26.076C141.479 26.0027 141.311 25.9513 141.135 25.922C140.959 25.878 140.79 25.8413 140.629 25.812C140.614 25.812 140.599 25.812 140.585 25.812C140.585 25.7973 140.577 25.79 140.563 25.79C140.416 25.7607 140.284 25.79 140.167 25.878C140.167 25.878 140.159 25.878 140.145 25.878C140.145 25.878 140.137 25.8853 140.123 25.9C139.961 25.988 139.815 26.01 139.683 25.966H139.573C139.353 25.966 139.199 26.0613 139.111 26.252C139.081 26.34 139.067 26.406 139.067 26.45C139.067 26.5233 139.067 26.604 139.067 26.692C139.067 26.78 139.074 26.8607 139.089 26.934C139.118 27.022 139.133 27.088 139.133 27.132C139.133 27.2347 139.14 27.33 139.155 27.418C139.169 27.506 139.184 27.594 139.199 27.682C139.213 27.6967 139.221 27.726 139.221 27.77C139.206 27.8287 139.199 27.88 139.199 27.924C139.213 27.968 139.221 28.0193 139.221 28.078C139.235 28.1367 139.243 28.188 139.243 28.232C139.257 28.276 139.257 28.32 139.243 28.364C139.243 28.4813 139.265 28.5987 139.309 28.716C139.309 28.7307 139.316 28.7453 139.331 28.76C139.36 28.76 139.382 28.7527 139.397 28.738ZM158.754 40.596C158.607 40.5813 158.497 40.4933 158.424 40.332C158.409 40.3173 158.402 40.2807 158.402 40.222C158.387 40.1047 158.365 39.9873 158.336 39.87C158.321 39.7527 158.321 39.6353 158.336 39.518V39.408C158.321 39.276 158.314 39.144 158.314 39.012C158.314 38.88 158.306 38.7553 158.292 38.638C158.262 38.3887 158.174 38.198 158.028 38.066L157.83 37.868C157.756 37.78 157.661 37.7507 157.544 37.78C157.456 37.7947 157.368 37.802 157.28 37.802C157.206 37.802 157.126 37.7947 157.038 37.78C156.979 37.78 156.913 37.7873 156.84 37.802C156.781 37.802 156.715 37.802 156.642 37.802C156.583 37.802 156.517 37.802 156.444 37.802C156.385 37.7873 156.326 37.7873 156.268 37.802C156.209 37.8167 156.15 37.824 156.092 37.824C156.048 37.824 156.004 37.824 155.96 37.824H155.212C155.05 37.824 154.882 37.846 154.706 37.89L154.178 38.022C154.002 38.0807 153.826 38.1247 153.65 38.154C153.591 38.1687 153.532 38.1833 153.474 38.198C153.415 38.2127 153.356 38.2347 153.298 38.264C153.078 38.3667 152.865 38.4253 152.66 38.44C152.528 38.4693 152.432 38.528 152.374 38.616L152.264 38.748C152.234 38.7627 152.205 38.7773 152.176 38.792C152.146 38.8213 152.117 38.8507 152.088 38.88C151.985 38.9387 151.875 38.9387 151.758 38.88C151.626 38.8067 151.545 38.726 151.516 38.638C151.516 38.6233 151.508 38.6087 151.494 38.594C151.494 38.594 151.494 38.5867 151.494 38.572C151.391 38.3227 151.222 38.1027 150.988 37.912C150.929 37.868 150.878 37.8167 150.834 37.758C150.819 37.714 150.797 37.6773 150.768 37.648C150.738 37.604 150.709 37.5673 150.68 37.538L150.548 37.34C150.489 37.2373 150.467 37.12 150.482 36.988C150.496 36.9147 150.504 36.8413 150.504 36.768C150.518 36.68 150.533 36.5993 150.548 36.526V36.394C150.548 36.2327 150.548 36.0713 150.548 35.91C150.548 35.734 150.555 35.5727 150.57 35.426V35.206C150.599 35.1473 150.606 35.096 150.592 35.052C150.592 34.9933 150.592 34.9347 150.592 34.876C150.606 34.6853 150.606 34.502 150.592 34.326C150.592 34.1353 150.599 33.9447 150.614 33.754L150.68 32.764C150.694 32.6027 150.702 32.4487 150.702 32.302C150.716 32.1553 150.724 32.0087 150.724 31.862V31.796C150.753 31.62 150.768 31.444 150.768 31.268C150.768 31.092 150.768 30.9087 150.768 30.718V29.2C150.753 29.0387 150.738 28.8773 150.724 28.716C150.724 28.5547 150.724 28.3933 150.724 28.232C150.724 28.056 150.716 27.88 150.702 27.704C150.687 27.5133 150.665 27.3227 150.636 27.132C150.621 27.0147 150.599 26.89 150.57 26.758C150.555 26.626 150.548 26.494 150.548 26.362C150.548 26.3327 150.54 26.3033 150.526 26.274C150.526 26.2447 150.526 26.2153 150.526 26.186C150.438 25.79 150.394 25.3867 150.394 24.976V24.052C150.394 23.9493 150.394 23.854 150.394 23.766C150.408 23.6633 150.423 23.5607 150.438 23.458C150.467 23.282 150.526 23.15 150.614 23.062L150.724 22.93C150.812 22.8127 150.914 22.732 151.032 22.688C151.149 22.6293 151.274 22.5927 151.406 22.578H151.56C151.78 22.578 151.956 22.6587 152.088 22.82C152.117 22.8347 152.139 22.8493 152.154 22.864C152.168 22.8787 152.183 22.8933 152.198 22.908C152.271 22.9667 152.315 23.0327 152.33 23.106C152.403 23.2527 152.44 23.348 152.44 23.392C152.454 23.436 152.462 23.5387 152.462 23.7V23.854C152.462 23.9567 152.462 24.0593 152.462 24.162C152.462 24.25 152.469 24.3453 152.484 24.448C152.498 24.4773 152.506 24.5213 152.506 24.58C152.506 24.6827 152.506 24.7853 152.506 24.888C152.52 24.9907 152.535 25.0933 152.55 25.196C152.564 25.3427 152.579 25.4893 152.594 25.636C152.608 25.768 152.616 25.9147 152.616 26.076C152.616 26.1053 152.616 26.142 152.616 26.186C152.63 26.2153 152.638 26.2447 152.638 26.274C152.638 26.2887 152.638 26.3107 152.638 26.34C152.652 26.3547 152.66 26.3767 152.66 26.406L152.726 27.528C152.74 27.6013 152.748 27.682 152.748 27.77C152.748 27.8433 152.748 27.924 152.748 28.012C152.762 28.0267 152.77 28.0633 152.77 28.122C152.755 28.1953 152.748 28.276 152.748 28.364C152.748 28.4373 152.755 28.5107 152.77 28.584V30.036C152.755 30.124 152.755 30.212 152.77 30.3V30.432C152.755 30.5493 152.748 30.674 152.748 30.806C152.748 30.9233 152.74 31.048 152.726 31.18C152.726 31.2827 152.726 31.3927 152.726 31.51C152.726 31.6127 152.718 31.7227 152.704 31.84C152.689 31.8987 152.682 31.9647 152.682 32.038C152.682 32.1113 152.682 32.1847 152.682 32.258C152.682 32.3167 152.674 32.39 152.66 32.478C152.66 32.5513 152.652 32.6247 152.638 32.698V32.764C152.623 32.9107 152.608 33.0573 152.594 33.204C152.594 33.3507 152.586 33.5047 152.572 33.666C152.557 33.7393 152.55 33.82 152.55 33.908C152.55 33.996 152.542 34.084 152.528 34.172C152.513 34.2307 152.506 34.304 152.506 34.392C152.506 34.4653 152.506 34.5387 152.506 34.612C152.506 34.6853 152.498 34.7587 152.484 34.832C152.469 34.9933 152.462 35.1547 152.462 35.316C152.462 35.4627 152.462 35.6167 152.462 35.778V35.8C152.491 35.8733 152.528 35.91 152.572 35.91L153.012 35.976C153.364 36.02 153.708 36.042 154.046 36.042C154.134 36.042 154.207 36.0347 154.266 36.02C154.339 36.0053 154.42 35.998 154.508 35.998C154.596 35.998 154.676 35.9907 154.75 35.976H155.366C155.468 35.976 155.571 35.9687 155.674 35.954C155.776 35.9247 155.879 35.9027 155.982 35.888H156.092C156.253 35.888 156.414 35.8807 156.576 35.866C156.737 35.8367 156.898 35.822 157.06 35.822H157.786C157.991 35.822 158.167 35.778 158.314 35.69C158.431 35.646 158.541 35.6167 158.644 35.602C158.761 35.5873 158.878 35.5727 158.996 35.558C159.172 35.558 159.326 35.602 159.458 35.69C159.751 35.866 159.942 36.108 160.03 36.416C160.059 36.5187 160.074 36.6287 160.074 36.746C160.088 36.8633 160.088 36.9807 160.074 37.098C160.059 37.23 160.03 37.3547 159.986 37.472C159.942 37.5747 159.883 37.6847 159.81 37.802L159.612 38.088C159.524 38.2493 159.458 38.4107 159.414 38.572C159.399 38.704 159.377 38.8287 159.348 38.946C159.318 39.078 159.304 39.21 159.304 39.342C159.304 39.4007 159.296 39.4593 159.282 39.518C159.282 39.5767 159.282 39.6353 159.282 39.694C159.267 39.7527 159.26 39.804 159.26 39.848C159.26 39.892 159.26 39.9433 159.26 40.002C159.26 40.1193 159.223 40.2513 159.15 40.398C159.062 40.5447 158.93 40.6107 158.754 40.596ZM164.456 38.22C164.441 38.22 164.419 38.2127 164.39 38.198C164.375 38.198 164.353 38.198 164.324 38.198C164.221 38.198 164.148 38.154 164.104 38.066C164.045 37.9633 163.986 37.8753 163.928 37.802C163.869 37.7287 163.803 37.6553 163.73 37.582C163.656 37.5087 163.59 37.428 163.532 37.34C163.488 37.252 163.444 37.164 163.4 37.076C163.356 37.0027 163.334 36.9293 163.334 36.856V36.636C163.334 36.5627 163.326 36.4893 163.312 36.416C163.312 36.328 163.304 36.2473 163.29 36.174C163.26 36.0567 163.231 35.932 163.202 35.8C163.187 35.668 163.165 35.5433 163.136 35.426C163.136 35.3967 163.128 35.3673 163.114 35.338C163.114 35.294 163.114 35.2573 163.114 35.228C163.099 35.0667 163.077 34.9053 163.048 34.744C163.018 34.568 162.989 34.3993 162.96 34.238C162.916 33.9447 162.864 33.6587 162.806 33.38C162.762 33.0867 162.718 32.8007 162.674 32.522L162.542 31.796C162.527 31.6787 162.483 31.554 162.41 31.422C162.322 31.2607 162.256 31.0847 162.212 30.894C162.197 30.806 162.175 30.7253 162.146 30.652C162.116 30.564 162.087 30.476 162.058 30.388C162.014 30.2413 161.97 30.0947 161.926 29.948C161.882 29.8013 161.845 29.6547 161.816 29.508C161.801 29.3907 161.779 29.2733 161.75 29.156C161.72 29.0387 161.691 28.9213 161.662 28.804L161.53 28.21C161.53 28.1807 161.522 28.1587 161.508 28.144C161.493 27.9387 161.464 27.7333 161.42 27.528C161.376 27.308 161.332 27.0953 161.288 26.89C161.273 26.7727 161.251 26.6333 161.222 26.472C161.207 26.296 161.207 26.1567 161.222 26.054V25.834C161.251 25.6287 161.317 25.438 161.42 25.262C161.537 25.0567 161.728 24.8953 161.992 24.778C162.065 24.7487 162.138 24.7267 162.212 24.712C162.285 24.6973 162.351 24.6827 162.41 24.668C162.571 24.6533 162.725 24.6753 162.872 24.734C163.018 24.778 163.165 24.844 163.312 24.932C163.356 24.9613 163.392 24.998 163.422 25.042C163.466 25.1153 163.51 25.1887 163.554 25.262C163.612 25.3353 163.649 25.416 163.664 25.504C163.693 25.592 163.722 25.68 163.752 25.768C163.796 25.856 163.84 25.9367 163.884 26.01C163.957 26.1567 164.008 26.3107 164.038 26.472C164.067 26.6333 164.096 26.7947 164.126 26.956C164.17 27.176 164.192 27.4107 164.192 27.66V27.77C164.221 27.9167 164.236 28.0633 164.236 28.21C164.236 28.342 164.236 28.4813 164.236 28.628C164.25 28.8627 164.272 29.0973 164.302 29.332C164.331 29.552 164.36 29.7867 164.39 30.036L164.522 31.07V31.114C164.551 31.2753 164.58 31.444 164.61 31.62C164.654 31.7813 164.683 31.9427 164.698 32.104C164.742 32.3533 164.786 32.61 164.83 32.874C164.888 33.1233 164.932 33.3727 164.962 33.622L165.094 34.546C165.123 34.6927 165.145 34.8393 165.16 34.986C165.189 35.1327 165.218 35.2793 165.248 35.426C165.277 35.5727 165.299 35.7193 165.314 35.866C165.343 35.998 165.372 36.1373 165.402 36.284C165.416 36.3427 165.424 36.4013 165.424 36.46C165.438 36.504 165.446 36.5553 165.446 36.614C165.46 36.834 165.424 37.0467 165.336 37.252C165.321 37.3107 165.284 37.3693 165.226 37.428C165.167 37.516 165.116 37.5747 165.072 37.604C164.954 37.7213 164.866 37.846 164.808 37.978C164.808 37.9927 164.793 38.0147 164.764 38.044C164.749 38.0733 164.727 38.1027 164.698 38.132C164.639 38.1907 164.558 38.22 164.456 38.22ZM180.906 44.776C180.745 44.8053 180.642 44.7613 180.598 44.644C180.584 44.6147 180.569 44.578 180.554 44.534C180.54 44.49 180.518 44.4533 180.488 44.424C180.474 44.3507 180.459 44.2773 180.444 44.204C180.43 44.1307 180.415 44.0573 180.4 43.984C180.386 43.9253 180.371 43.8667 180.356 43.808C180.356 43.7493 180.356 43.6907 180.356 43.632C180.342 43.5 180.327 43.368 180.312 43.236C180.298 43.1187 180.283 42.994 180.268 42.862C180.268 42.8327 180.261 42.8033 180.246 42.774C180.246 42.7447 180.246 42.7153 180.246 42.686C180.246 42.4953 180.239 42.3047 180.224 42.114C180.224 41.9233 180.217 41.7327 180.202 41.542C180.188 41.498 180.18 41.4467 180.18 41.388C180.18 41.344 180.18 41.3 180.18 41.256V41.102C180.166 40.8967 180.151 40.6913 180.136 40.486C180.136 40.2807 180.136 40.0753 180.136 39.87C180.136 39.7087 180.122 39.54 180.092 39.364C180.078 39.2027 180.056 39.0487 180.026 38.902C179.982 38.726 179.916 38.572 179.828 38.44C179.755 38.308 179.689 38.1687 179.63 38.022C179.572 37.89 179.513 37.7507 179.454 37.604C179.44 37.5453 179.41 37.494 179.366 37.45C179.337 37.406 179.308 37.362 179.278 37.318C179.088 37.0833 178.897 36.8487 178.706 36.614C178.516 36.3793 178.325 36.1373 178.134 35.888L177.54 35.118L176.968 34.392C176.851 34.2307 176.726 34.0767 176.594 33.93C176.477 33.7687 176.36 33.6073 176.242 33.446C176.066 33.1967 175.883 32.9547 175.692 32.72C175.502 32.4707 175.304 32.2287 175.098 31.994C174.629 31.378 174.16 30.7987 173.69 30.256C173.632 30.168 173.573 30.0873 173.514 30.014C173.456 29.926 173.397 29.838 173.338 29.75C173.28 29.6767 173.221 29.6033 173.162 29.53C173.104 29.442 173.038 29.3613 172.964 29.288C172.92 29.2293 172.876 29.178 172.832 29.134C172.788 29.09 172.752 29.0387 172.722 28.98L171.798 27.924C171.754 27.8653 171.71 27.814 171.666 27.77C171.622 27.726 171.578 27.682 171.534 27.638C171.388 27.4767 171.234 27.3153 171.072 27.154C170.926 26.978 170.772 26.8167 170.61 26.67C170.552 26.5967 170.493 26.5307 170.434 26.472C170.376 26.4133 170.302 26.362 170.214 26.318C170.214 26.318 170.207 26.318 170.192 26.318C170.178 26.318 170.163 26.3253 170.148 26.34V26.406C170.134 26.4353 170.126 26.4793 170.126 26.538C170.126 26.6553 170.126 26.7727 170.126 26.89C170.126 26.9927 170.119 27.1027 170.104 27.22C170.09 27.2787 170.082 27.3373 170.082 27.396C170.097 27.44 170.097 27.484 170.082 27.528V28.562C170.082 28.606 170.082 28.6573 170.082 28.716C170.082 28.76 170.075 28.8113 170.06 28.87C170.046 28.958 170.038 29.046 170.038 29.134C170.038 29.222 170.038 29.3173 170.038 29.42V29.992C170.038 30.124 170.031 30.256 170.016 30.388C170.016 30.52 170.009 30.652 169.994 30.784C169.98 30.96 169.972 31.136 169.972 31.312C169.972 31.488 169.972 31.664 169.972 31.84C169.972 31.972 169.972 32.104 169.972 32.236C169.972 32.3533 169.958 32.4707 169.928 32.588V32.808C169.928 32.9253 169.928 33.05 169.928 33.182C169.928 33.314 169.921 33.4387 169.906 33.556C169.906 33.6293 169.906 33.71 169.906 33.798C169.906 33.8713 169.899 33.9447 169.884 34.018C169.87 34.1207 169.87 34.2307 169.884 34.348C169.884 34.48 169.884 34.612 169.884 34.744C169.899 34.876 169.914 35.0007 169.928 35.118L169.994 35.558C170.024 35.7487 170.06 35.9393 170.104 36.13C170.148 36.306 170.192 36.4893 170.236 36.68C170.251 36.724 170.266 36.7753 170.28 36.834C170.295 36.878 170.31 36.922 170.324 36.966C170.368 37.0687 170.383 37.1713 170.368 37.274C170.368 37.362 170.361 37.4573 170.346 37.56C170.332 37.604 170.295 37.67 170.236 37.758C170.207 37.8167 170.17 37.8753 170.126 37.934C170.097 37.978 170.06 38.022 170.016 38.066C169.958 38.154 169.921 38.22 169.906 38.264C169.906 38.308 169.892 38.3593 169.862 38.418V38.506C169.804 38.7407 169.642 38.858 169.378 38.858C169.29 38.8727 169.202 38.8213 169.114 38.704C169.114 38.6893 169.107 38.6747 169.092 38.66C169.092 38.6453 169.092 38.6307 169.092 38.616C169.078 38.4987 169.034 38.396 168.96 38.308C168.902 38.2347 168.843 38.1613 168.784 38.088C168.755 38.044 168.718 38.0073 168.674 37.978C168.645 37.934 168.616 37.8973 168.586 37.868C168.528 37.78 168.491 37.7067 168.476 37.648L168.388 37.428C168.33 37.2667 168.278 37.1127 168.234 36.966C168.19 36.8193 168.154 36.6727 168.124 36.526C168.124 36.4967 168.117 36.4747 168.102 36.46C168.058 36.2987 168.022 36.13 167.992 35.954C167.978 35.778 167.956 35.602 167.926 35.426C167.926 35.338 167.919 35.2647 167.904 35.206C167.89 35.0007 167.882 34.8027 167.882 34.612C167.897 34.4067 167.904 34.2087 167.904 34.018V33.226C167.904 33.1087 167.904 32.9987 167.904 32.896C167.919 32.7787 167.934 32.6687 167.948 32.566C167.963 32.4927 167.97 32.4267 167.97 32.368C167.97 32.2947 167.97 32.2287 167.97 32.17C167.97 32.0967 167.97 32.0233 167.97 31.95C167.97 31.8767 167.978 31.8033 167.992 31.73C168.007 31.6127 168.014 31.4953 168.014 31.378C168.014 31.2607 168.014 31.1507 168.014 31.048C168.029 30.9453 168.029 30.85 168.014 30.762C168.014 30.6593 168.014 30.5567 168.014 30.454C168.029 30.3367 168.036 30.2193 168.036 30.102C168.036 29.97 168.036 29.838 168.036 29.706C168.051 29.53 168.058 29.354 168.058 29.178C168.058 29.002 168.058 28.826 168.058 28.65C168.073 28.5033 168.08 28.364 168.08 28.232C168.08 28.0853 168.088 27.9387 168.102 27.792C168.117 27.748 168.124 27.682 168.124 27.594V25.526C168.095 25.3353 168.073 25.152 168.058 24.976C168.058 24.7853 168.058 24.5947 168.058 24.404C168.058 24.3013 168.036 24.1987 167.992 24.096C167.992 24.0667 167.978 24.0227 167.948 23.964C167.831 23.6707 167.838 23.3627 167.97 23.04C168.088 22.776 168.315 22.5853 168.652 22.468C168.843 22.4093 169.056 22.4167 169.29 22.49C169.349 22.5047 169.4 22.5267 169.444 22.556C169.503 22.5853 169.547 22.622 169.576 22.666C169.606 22.6953 169.62 22.7173 169.62 22.732C169.782 22.9227 169.958 23.0987 170.148 23.26C170.251 23.3627 170.346 23.4653 170.434 23.568C170.537 23.656 170.64 23.7587 170.742 23.876L171.314 24.47C171.446 24.602 171.571 24.734 171.688 24.866C171.82 24.9833 171.945 25.1153 172.062 25.262L172.216 25.416C172.378 25.592 172.539 25.768 172.7 25.944C172.876 26.12 173.038 26.3033 173.184 26.494C173.272 26.5967 173.36 26.6993 173.448 26.802C173.536 26.89 173.624 26.9927 173.712 27.11L174.218 27.704C174.497 28.056 174.768 28.4153 175.032 28.782C175.296 29.134 175.568 29.486 175.846 29.838C175.964 29.9847 176.074 30.1313 176.176 30.278C176.294 30.4247 176.404 30.5713 176.506 30.718L176.66 30.916C176.734 31.0333 176.814 31.1507 176.902 31.268C176.99 31.3707 177.078 31.4807 177.166 31.598C177.284 31.7447 177.401 31.8913 177.518 32.038C177.636 32.17 177.746 32.302 177.848 32.434C177.951 32.5367 178.046 32.654 178.134 32.786C178.384 33.0647 178.618 33.3433 178.838 33.622C178.868 33.6367 178.89 33.6367 178.904 33.622V33.6C178.904 33.5413 178.904 33.4827 178.904 33.424C178.919 33.3507 178.926 33.2847 178.926 33.226C178.912 33.1527 178.904 33.094 178.904 33.05C178.904 32.9913 178.904 32.9327 178.904 32.874C178.904 32.7713 178.904 32.676 178.904 32.588C178.904 32.4853 178.897 32.3827 178.882 32.28V31.972C178.868 31.8547 178.86 31.7447 178.86 31.642C178.86 31.5247 178.86 31.4147 178.86 31.312V31.268C178.846 31.1067 178.831 30.9453 178.816 30.784C178.816 30.608 178.809 30.4393 178.794 30.278C178.794 30.1753 178.787 30.08 178.772 29.992C178.758 29.904 178.743 29.816 178.728 29.728C178.728 29.684 178.721 29.64 178.706 29.596C178.706 29.5373 178.706 29.486 178.706 29.442C178.692 29.2807 178.684 29.1267 178.684 28.98C178.684 28.8333 178.677 28.6867 178.662 28.54C178.648 28.3053 178.626 28.0707 178.596 27.836C178.582 27.6013 178.574 27.3667 178.574 27.132C178.589 26.8093 178.589 26.494 178.574 26.186C178.574 25.878 178.574 25.5627 178.574 25.24V24.844C178.574 24.8 178.567 24.7707 178.552 24.756C178.538 24.6387 178.53 24.5287 178.53 24.426C178.53 24.3233 178.53 24.2207 178.53 24.118V23.898C178.53 23.766 178.523 23.634 178.508 23.502C178.494 23.37 178.464 23.2453 178.42 23.128V23.084C178.362 22.9373 178.369 22.776 178.442 22.6C178.486 22.4533 178.552 22.3287 178.64 22.226C178.728 22.1087 178.824 21.9987 178.926 21.896L179.08 21.83C179.315 21.742 179.542 21.7347 179.762 21.808L180.092 22.006C180.122 22.0207 180.144 22.05 180.158 22.094C180.188 22.1233 180.21 22.1527 180.224 22.182C180.371 22.402 180.444 22.622 180.444 22.842C180.444 22.9007 180.444 22.9667 180.444 23.04C180.459 23.0987 180.466 23.1647 180.466 23.238C180.466 23.2967 180.459 23.3553 180.444 23.414C180.43 23.4727 180.422 23.5313 180.422 23.59C180.437 23.7953 180.437 24.008 180.422 24.228C180.422 24.4333 180.422 24.6387 180.422 24.844C180.422 24.9467 180.422 25.0493 180.422 25.152C180.437 25.2547 180.444 25.3647 180.444 25.482C180.444 25.5407 180.444 25.6067 180.444 25.68C180.444 25.7387 180.452 25.8047 180.466 25.878C180.481 25.9367 180.488 26.01 180.488 26.098V26.604C180.488 26.6773 180.488 26.7507 180.488 26.824C180.488 26.8973 180.496 26.9707 180.51 27.044C180.525 27.1173 180.532 27.198 180.532 27.286C180.532 27.3593 180.54 27.4327 180.554 27.506C180.554 27.5647 180.554 27.6233 180.554 27.682C180.554 27.726 180.562 27.7773 180.576 27.836C180.576 27.8653 180.576 27.8947 180.576 27.924C180.591 27.9533 180.598 27.9827 180.598 28.012C180.598 28.1 180.598 28.188 180.598 28.276C180.613 28.364 180.628 28.452 180.642 28.54C180.642 28.7013 180.65 28.87 180.664 29.046C180.694 29.222 180.708 29.398 180.708 29.574C180.708 29.6327 180.708 29.6913 180.708 29.75C180.723 29.794 180.738 29.8453 180.752 29.904V30.014C180.752 30.1753 180.76 30.3367 180.774 30.498C180.804 30.6593 180.818 30.8207 180.818 30.982V31.07C180.848 31.2167 180.862 31.3633 180.862 31.51C180.862 31.6567 180.87 31.8107 180.884 31.972C180.884 32.0307 180.884 32.0893 180.884 32.148C180.884 32.2067 180.892 32.2653 180.906 32.324C180.906 32.3387 180.906 32.3607 180.906 32.39C180.921 32.4047 180.928 32.4193 180.928 32.434C180.928 32.5807 180.936 32.72 180.95 32.852C180.965 32.984 180.98 33.116 180.994 33.248L181.06 33.732L181.082 33.886C181.097 34.0473 181.112 34.2087 181.126 34.37C181.156 34.5313 181.178 34.6927 181.192 34.854L181.258 35.47C181.288 35.6607 181.324 35.8513 181.368 36.042C181.412 36.2327 181.486 36.416 181.588 36.592C181.632 36.68 181.662 36.7753 181.676 36.878C181.706 36.966 181.728 37.054 181.742 37.142V37.318C181.728 37.362 181.72 37.428 181.72 37.516C181.706 37.692 181.662 37.868 181.588 38.044C181.559 38.132 181.53 38.22 181.5 38.308C181.471 38.396 181.442 38.484 181.412 38.572C181.398 38.6307 181.39 38.682 181.39 38.726C181.39 38.7847 181.383 38.8433 181.368 38.902C181.324 39.166 181.302 39.43 181.302 39.694V40.354C181.317 40.5447 181.324 40.7353 181.324 40.926C181.324 41.1167 181.324 41.3073 181.324 41.498V41.938C181.324 42.0113 181.324 42.0847 181.324 42.158C181.324 42.246 181.332 42.3267 181.346 42.4C181.361 42.4293 181.361 42.466 181.346 42.51C181.346 42.554 181.346 42.5907 181.346 42.62C181.332 42.6933 181.324 42.7667 181.324 42.84C181.324 42.928 181.324 43.0087 181.324 43.082V43.94C181.324 44.1013 181.302 44.27 181.258 44.446C181.214 44.622 181.097 44.732 180.906 44.776ZM184.983 41.63C184.821 41.6887 184.704 41.6447 184.631 41.498C184.557 41.3953 184.506 41.2707 184.477 41.124C184.477 41.0653 184.469 41.0067 184.455 40.948C184.455 40.904 184.455 40.8527 184.455 40.794C184.44 40.7647 184.433 40.7353 184.433 40.706C184.447 40.5887 184.455 40.4787 184.455 40.376C184.455 40.2733 184.462 40.1707 184.477 40.068C184.477 39.8627 184.477 39.65 184.477 39.43C184.491 39.2247 184.491 39.012 184.477 38.792C184.477 38.616 184.425 38.4253 184.323 38.22C184.235 38.0293 184.169 37.8167 184.125 37.582C184.11 37.5087 184.103 37.4427 184.103 37.384C184.103 37.3253 184.103 37.2667 184.103 37.208C184.132 37.0467 184.154 36.8853 184.169 36.724C184.183 36.548 184.198 36.3793 184.213 36.218C184.242 36.0567 184.257 35.8953 184.257 35.734C184.271 35.5727 184.286 35.4187 184.301 35.272C184.315 35.1107 184.33 34.9567 184.345 34.81C184.374 34.6487 184.381 34.4873 184.367 34.326C184.396 34.1647 184.411 34.0107 184.411 33.864C184.425 33.7027 184.44 33.5487 184.455 33.402C184.484 33.2847 184.491 33.1747 184.477 33.072C184.477 32.9547 184.469 32.8447 184.455 32.742C184.44 32.6687 184.433 32.61 184.433 32.566C184.447 32.5073 184.455 32.4487 184.455 32.39C184.469 32.3167 184.477 32.2433 184.477 32.17C184.477 32.082 184.484 32.0087 184.499 31.95V31.092C184.484 30.9013 184.477 30.718 184.477 30.542C184.491 30.3513 184.499 30.1607 184.499 29.97C184.484 29.8233 184.477 29.6767 184.477 29.53C184.491 29.3687 184.506 29.2147 184.521 29.068C184.535 29.024 184.543 28.98 184.543 28.936C184.543 28.892 184.543 28.8553 184.543 28.826V28.078C184.543 27.99 184.55 27.924 184.565 27.88V27.594C184.535 27.55 184.535 27.4913 184.565 27.418C184.594 27.286 184.594 27.154 184.565 27.022C184.55 26.9927 184.543 26.9633 184.543 26.934C184.557 26.89 184.565 26.846 184.565 26.802C184.565 26.7287 184.565 26.6627 184.565 26.604C184.579 26.5307 184.587 26.4573 184.587 26.384C184.587 26.3253 184.587 26.2667 184.587 26.208C184.601 26.1347 184.616 26.0687 184.631 26.01V25.922C184.631 25.8047 184.638 25.6873 184.653 25.57C184.667 25.438 184.682 25.3207 184.697 25.218L184.829 24.36C184.858 24.2133 184.887 24.074 184.917 23.942C184.961 23.81 185.012 23.678 185.071 23.546C185.159 23.282 185.32 23.04 185.555 22.82C185.628 22.7613 185.701 22.71 185.775 22.666C185.863 22.622 185.958 22.6 186.061 22.6C186.075 22.5853 186.097 22.578 186.127 22.578C186.229 22.5487 186.325 22.5413 186.413 22.556C186.501 22.5707 186.589 22.5927 186.677 22.622C186.882 22.666 187.036 22.776 187.139 22.952C187.212 23.0547 187.249 23.15 187.249 23.238C187.249 23.3113 187.256 23.37 187.271 23.414C187.315 23.6047 187.329 23.7807 187.315 23.942C187.315 24.0007 187.315 24.0593 187.315 24.118C187.329 24.1767 187.344 24.2427 187.359 24.316C187.388 24.3893 187.403 24.47 187.403 24.558C187.403 24.6313 187.403 24.7047 187.403 24.778C187.403 24.8807 187.395 24.9833 187.381 25.086C187.366 25.174 187.351 25.2693 187.337 25.372C187.322 25.4307 187.307 25.4967 187.293 25.57C187.293 25.6287 187.278 25.6947 187.249 25.768C187.234 25.8707 187.212 25.9733 187.183 26.076C187.168 26.1787 187.153 26.2813 187.139 26.384V26.472C187.109 26.6187 187.087 26.7727 187.073 26.934C187.058 27.0807 187.036 27.2273 187.007 27.374C186.992 27.418 186.985 27.462 186.985 27.506C186.985 27.55 186.985 27.5867 186.985 27.616C186.985 27.66 186.985 27.704 186.985 27.748C186.985 27.792 186.977 27.836 186.963 27.88C186.948 27.968 186.941 28.056 186.941 28.144C186.941 28.232 186.933 28.3273 186.919 28.43C186.919 28.4447 186.919 28.452 186.919 28.452C186.933 28.452 186.941 28.4593 186.941 28.474C186.941 28.4887 186.948 28.5033 186.963 28.518C186.992 28.5327 187.014 28.5327 187.029 28.518C187.087 28.4887 187.139 28.452 187.183 28.408C187.344 28.276 187.513 28.144 187.689 28.012C187.865 27.88 188.041 27.748 188.217 27.616C188.378 27.4987 188.539 27.3813 188.701 27.264C188.862 27.1467 189.023 27.0293 189.185 26.912C189.199 26.912 189.214 26.9047 189.229 26.89C189.375 26.7727 189.515 26.6553 189.647 26.538C189.793 26.4207 189.933 26.3033 190.065 26.186C190.226 26.0393 190.38 25.8927 190.527 25.746C190.688 25.5993 190.835 25.4453 190.967 25.284C190.996 25.2547 191.025 25.2253 191.055 25.196C191.084 25.1667 191.113 25.1373 191.143 25.108L191.869 24.316C191.986 24.184 192.14 24.0447 192.331 23.898C192.404 23.8393 192.485 23.8027 192.573 23.788C192.602 23.788 192.624 23.788 192.639 23.788C192.653 23.7733 192.668 23.7733 192.683 23.788C192.756 23.788 192.822 23.7953 192.881 23.81C192.939 23.81 192.998 23.8173 193.057 23.832C193.101 23.8467 193.167 23.854 193.255 23.854C193.328 23.8247 193.379 23.8467 193.409 23.92C193.409 23.9347 193.423 23.942 193.453 23.942C193.467 23.942 193.504 23.9273 193.563 23.898C193.607 23.898 193.629 23.9127 193.629 23.942C193.673 24.03 193.739 24.096 193.827 24.14C193.827 24.1547 193.827 24.162 193.827 24.162C193.841 24.162 193.849 24.162 193.849 24.162V24.228C193.849 24.3013 193.878 24.3453 193.937 24.36C193.951 24.36 193.959 24.3673 193.959 24.382C193.973 24.382 193.981 24.382 193.981 24.382C194.01 24.3967 194.039 24.4333 194.069 24.492C194.069 24.5947 194.091 24.7047 194.135 24.822C194.223 25.0713 194.215 25.3133 194.113 25.548C194.01 25.812 193.863 26.0687 193.673 26.318L193.123 27.044C193.064 27.1173 192.998 27.1907 192.925 27.264C192.851 27.3373 192.778 27.4033 192.705 27.462C192.631 27.5353 192.58 27.594 192.551 27.638C192.521 27.6673 192.492 27.6967 192.463 27.726C192.433 27.7553 192.404 27.7847 192.375 27.814C192.301 27.9167 192.213 27.9973 192.111 28.056C192.037 28.1147 191.957 28.1733 191.869 28.232C191.781 28.276 191.7 28.3347 191.627 28.408C191.553 28.4667 191.465 28.518 191.363 28.562C191.275 28.5913 191.187 28.6207 191.099 28.65C191.025 28.694 190.937 28.7013 190.835 28.672H190.813C190.622 28.6133 190.424 28.65 190.219 28.782C190.175 28.8113 190.123 28.8407 190.065 28.87C190.021 28.8993 189.969 28.9287 189.911 28.958C189.808 29.046 189.691 29.1267 189.559 29.2C189.5 29.2293 189.449 29.266 189.405 29.31C189.361 29.3393 189.317 29.3687 189.273 29.398C189.155 29.486 189.031 29.574 188.899 29.662C188.767 29.7353 188.642 29.816 188.525 29.904L188.085 30.168C188.041 30.1973 187.989 30.234 187.931 30.278C187.887 30.3073 187.835 30.344 187.777 30.388C187.747 30.4173 187.747 30.4467 187.777 30.476L188.041 30.674C188.231 30.7767 188.415 30.894 188.591 31.026C188.767 31.1433 188.943 31.268 189.119 31.4C189.28 31.5173 189.434 31.642 189.581 31.774C189.742 31.8913 189.903 32.0087 190.065 32.126C190.094 32.1407 190.123 32.1627 190.153 32.192C190.197 32.2213 190.226 32.2507 190.241 32.28C190.402 32.412 190.549 32.544 190.681 32.676C190.827 32.7933 190.974 32.918 191.121 33.05C191.37 33.2847 191.627 33.512 191.891 33.732C192.155 33.9373 192.404 34.1647 192.639 34.414L192.837 34.612C192.925 34.7147 193.013 34.81 193.101 34.898C193.203 34.9713 193.306 35.052 193.409 35.14C193.497 35.184 193.563 35.2427 193.607 35.316L193.673 35.382C193.775 35.4847 193.841 35.5947 193.871 35.712C193.9 35.8293 193.907 35.9613 193.893 36.108L193.871 36.262C193.885 36.3647 193.856 36.4453 193.783 36.504C193.739 36.5187 193.717 36.5773 193.717 36.68C193.717 36.7387 193.687 36.768 193.629 36.768C193.57 36.7827 193.519 36.812 193.475 36.856C193.372 36.944 193.247 37.01 193.101 37.054L192.925 37.12C192.866 37.1493 192.822 37.1567 192.793 37.142C192.734 37.1127 192.668 37.0833 192.595 37.054C192.521 37.0247 192.448 37.0027 192.375 36.988C192.345 36.9733 192.301 36.9367 192.243 36.878C192.169 36.8047 192.096 36.7313 192.023 36.658C191.949 36.57 191.876 36.482 191.803 36.394C191.7 36.2767 191.59 36.1593 191.473 36.042C191.355 35.9247 191.238 35.8147 191.121 35.712L190.417 35.118C190.255 34.9567 190.087 34.81 189.911 34.678C189.735 34.546 189.551 34.4067 189.361 34.26C189.331 34.2307 189.265 34.2013 189.163 34.172C189.119 34.172 189.075 34.1647 189.031 34.15C188.987 34.1207 188.943 34.0987 188.899 34.084C188.796 34.04 188.693 33.996 188.591 33.952C188.503 33.908 188.407 33.8567 188.305 33.798C188.217 33.7393 188.129 33.6807 188.041 33.622C187.953 33.5633 187.865 33.5047 187.777 33.446C187.674 33.358 187.557 33.2773 187.425 33.204C187.307 33.116 187.19 33.0353 187.073 32.962C187.058 32.9473 187.036 32.94 187.007 32.94C186.992 32.94 186.97 32.9327 186.941 32.918C186.882 32.8887 186.838 32.9107 186.809 32.984C186.779 33.0133 186.75 33.072 186.721 33.16L186.655 33.512C186.64 33.644 186.618 33.7833 186.589 33.93C186.574 34.062 186.559 34.194 186.545 34.326C186.53 34.4287 186.515 34.5313 186.501 34.634C186.486 34.722 186.471 34.81 186.457 34.898C186.442 34.986 186.427 35.074 186.413 35.162C186.398 35.25 186.376 35.338 186.347 35.426C186.332 35.4847 186.325 35.5507 186.325 35.624C186.325 35.6827 186.325 35.7487 186.325 35.822V36.548C186.325 36.724 186.31 36.9 186.281 37.076C186.251 37.2373 186.222 37.3987 186.193 37.56C186.149 37.8533 186.039 38.0953 185.863 38.286C185.76 38.4327 185.687 38.6013 185.643 38.792C185.584 39.056 185.54 39.3347 185.511 39.628C185.496 39.6867 185.489 39.7453 185.489 39.804C185.489 39.8773 185.481 39.9507 185.467 40.024C185.452 40.0827 185.445 40.1487 185.445 40.222C185.445 40.31 185.437 40.3907 185.423 40.464C185.408 40.5813 185.393 40.6987 185.379 40.816C185.379 40.948 185.364 41.0727 185.335 41.19C185.32 41.2927 185.276 41.388 185.203 41.476C185.144 41.5493 185.071 41.6007 184.983 41.63Z" fill="black"/>
<defs>
<filter id="filter0_d_1_5" x="8" y="8" width="60" height="56" filterUnits="userSpaceOnUse" color-interpolation-filters="sRGB">
<feFlood flood-opacity="0" result="BackgroundImageFix"/>
<feColorMatrix in="SourceAlpha" type="matrix" values="0 0 0 0 0 0 0 0 0 0 0 0 0 0 0 0 0 0 127 0" result="hardAlpha"/>
<feOffset dy="4"/>
<feGaussianBlur stdDeviation="2"/>
<feComposite in2="hardAlpha" operator="out"/>
<feColorMatrix type="matrix" values="0 0 0 0 0 0 0 0 0 0 0 0 0 0 0 0 0 0 0.25 0"/>
<feBlend mode="normal" in2="BackgroundImageFix" result="effect1_dropShadow_1_5"/>
<feBlend mode="normal" in="SourceGraphic" in2="effect1_dropShadow_1_5" result="shape"/>
</filter>
</defs>
</svg>
